<?xml version="1.0" encoding="UTF-8"?>
<!DOCTYPE svg PUBLIC "-//W3C//DTD SVG 1.1//EN" "http://www.w3.org/Graphics/SVG/1.1/DTD/svg11.dtd">
<!-- Creator: CorelDRAW -->
<svg xmlns="http://www.w3.org/2000/svg" xml:space="preserve" width="500px" height="100px" style="shape-rendering:geometricPrecision; text-rendering:geometricPrecision; image-rendering:optimizeQuality; fill-rule:evenodd; clip-rule:evenodd"
viewBox="0 0 500 100"
 xmlns:xlink="http://www.w3.org/1999/xlink">
 <defs>
  <style type="text/css">
   <![CDATA[
    .fil0 {fill:black;fill-rule:nonzero}
    .fil1 {fill:#3C61AB;fill-rule:nonzero}
   ]]>
  </style>
 </defs>
 <g id="Warstwa_x0020_1">
  <metadata id="CorelCorpID_0Corel-Layer"/>
  <path id="_255923664" class="fil0" d="M52.8709 6.0252l2.29606 2.29685 3.85118 -2.73543 -1.01339 4.45827 5.40472 -1.18189 -4.69528 3.24252 4.01969 1.65512 -4.4252 0.911811 4.66142 2.80394 -5.97874 -0.675591 2.19528 5.03307 -5.53937 -3.44567 -0.776378 3.0063 0 -4.7622c1.99213,0 3.64803,-1.65591 3.64803,-3.64882 0,-2.02677 -1.65591,-3.68189 -3.64803,-3.68189l0 -3.27638zm-0.912598 -1.01339l-0.168504 2.97244 -5.81024 -1.51969 2.60079 3.31024 -3.47874 0.979528 2.76929 2.22913 -4.12047 4.32441 3.81654 -0.811024 -2.87087 7.29606 5.64094 -5.91102 1.4189 7.70079 1.11496 -4.18819 0 -4.7622c-2.02756,0 -3.68268,-1.65591 -3.68268,-3.64882 0,-2.02677 1.65512,-3.68189 3.68268,-3.68189l0 -3.27638 -0.912598 -1.01339z"/>
  <path id="_255923640" class="fil0" d="M56.8567 57.1331l0.371654 4.12047c0.269291,0.608661 0.506299,1.35118 1.48583,1.52047l0.777165 0.303937 0 0.641732 -3.98583 -0.0338583 -0.0338583 -0.709449 -0.371654 -0.270079 -0.169291 -1.35118 -0.202362 -3.61417 -0.134646 -0.844882 -0.337795 -0.607874 -0.406299 -0.0669291 -0.371654 0.844094 0 5.33701 0.574803 0.540157 1.01339 0.169291 0.0677165 0.641732 -4.01969 0 -0.0338583 -2.26299 0 -16.0795 -0.371654 -0.844094 -0.844882 -0.979528 -1.5874 -1.95906 -0.540157 -1.25039 -0.743307 -2.49921 -0.87874 -2.43228 -0.540157 -2.16142 -0.100787 -1.72283 0.371654 -1.52047 0.404724 -0.0338583 0 0.540945 -0.270079 0.135433 -0.0338583 0.270079 0.0677165 0.74252 0.270079 0.304724 0.303937 -0.304724 0.0677165 -0.303937 0.43937 0 -0.0677165 1.21575c0.168504,1.0811 0.540157,2.1622 0.810236,3.24331 0.237008,0.607874 0.473228,1.14803 0.844882,1.65512l0.877953 1.28346 0.607874 0.675591 0.980315 0.743307 0.404724 0.168504 0.371654 -0.134646 0.337795 -0.168504 -0.0338583 -0.811024 -0.540157 -0.506299 -0.574016 -0.540945 -0.20315 -1.24961 0 -0.87874 0.101575 -0.844882 0.337795 -0.506299 0.641732 -0.506299 0.641732 -0.337795 0.810236 -0.169291 0.743307 -0.0669291 0.979528 0.370866 0.912598 0.608661 0.506299 0.911811 0.20315 1.85748 -0.574803 1.31732 -0.337795 0.101575 0 0.337795 0.0677165 1.01339 0.135433 0.169291 1.18268 -0.135433 0.810236 -0.777165 0.540157 -1.01339 0.709449 -1.28346 1.18268 -2.70236 0.0677165 -1.45197 -0.20315 -0.43937 -0.134646 -0.877953 0.404724 0.0669291 0.237008 0.574016 0.23622 0.303937 0.371654 -0.370866 -0.0338583 -0.844882 -0.0677165 -0.404724 -0.371654 -0.169291 0 -0.540157 0.405512 -0.0338583 0.438583 0.303937 0.338583 0.472441 -0.0346457 1.75669 -0.168504 0.844882 -0.303937 0.979528 -0.303937 1.9252 -0.506299 1.82441 -0.675591 1.85748 -0.743307 1.04724 -1.28346 1.51969 -0.87874 1.18268 -0.506299 0.405512 0.0677165 12.7685z"/>
  <polygon id="_255923520" class="fil0" points="33.1433,12.0378 40.0685,5.75512 47.4654,61.2197 38.2441,63.7535 34.9,63.7535 33.0764,52.8425 "/>
  <polygon id="_255923208" class="fil0" points="75.9417,63.8882 66.2803,60.5102 66.2803,3.69449 76.0764,14.8079 "/>
  <path id="_255923400" class="fil0" d="M54.4583 1.83701l24.5567 0 0 63.8079 -24.5567 0 0 -2.02677 21.0441 0 0 -59.6197 -21.0441 0 0 -2.16142zm-24.5913 0l0 63.8079 24.5913 0 0 -2.02677 -21.1118 0 0 -59.6197 21.1118 0 0 -2.16142 -24.5913 0z"/>
  <path id="_255922872" class="fil0" d="M36.1835 88.4126l0.20315 -0.945669c0,-0.102362 0.0669291,-0.337795 0.134646,-0.641732 0.0677165,-0.237008 0.101575,-0.43937 0.135433,-0.574803l0.0338583 -0.101575 0.0669291 -0.100787c0.101575,-0.169291 0.20315,-0.20315 0.337795,-0.135433 0.101575,0.0677165 0.20315,0.169291 0.304724,0.337795 0.100787,0.135433 0.134646,0.270079 0.134646,0.371654l-0.0338583 0.405512 -0.0669291 0.574016 -0.101575 0.709449 -0.101575 0.709449c0.607874,-0.472441 1.24961,-0.945669 1.89134,-1.38504 0.64252,-0.405512 1.01339,-0.607874 1.11496,-0.607874 0.135433,0.101575 0.270079,0.202362 0.371654,0.337008 0.135433,0.13622 0.135433,0.304724 0.0338583,0.473228l-0.0677165 0.0677165 -0.0338583 0.0338583c-0.100787,0.101575 -0.337795,0.303937 -0.776378,0.608661l-1.14882 0.810236 -0.641732 0.472441 -0.371654 0.270866c-0.134646,0.100787 -0.270079,0.202362 -0.405512,0.337795 -0.101575,0.0669291 -0.168504,0.168504 -0.23622,0.270079l-0.777165 1.04646 0 -3.34331zm0 -1.99291l0.405512 -0.473228c0.135433,-0.168504 0.135433,-0.405512 0,-0.675591 -0.135433,-0.23622 -0.270079,-0.438583 -0.405512,-0.574016l0 1.72283zm-0.506299 6.11339l0 -2.12756 0.100787 -0.169291c0.0677165,-0.134646 0.101575,-0.23622 0.101575,-0.270079l0.202362 -1.04724 0.101575 -0.506299 0 3.34331 -0.0338583 0.0685039 -0.472441 0.708661zm0.506299 -7.83622l0 1.72283 -0.506299 0.607874 0 -2.43228 0.134646 -0.100787c0.0677165,-0.0338583 0.135433,0 0.270079,0.100787 0.0338583,0.0338583 0.0677165,0.0677165 0.101575,0.101575zm-1.04646 8.1063c0.168504,0.0677165 0.269291,0.0338583 0.404724,-0.0669291l0.135433 -0.20315 0 -2.12756 -0.0338583 0.0677165 -0.169291 0.202362c0,0.0338583 -0.0338583,0.0677165 -0.0677165,0.101575l-0.0338583 0.0677165 -0.100787 0.168504 -0.101575 0.169291 -0.0330709 0 0 1.62047zm0 -5.16772l0.540157 -0.607874 0 -2.43228 -0.371654 0.270079 -0.168504 0.101575 0 2.6685zm0 -2.6685l0 2.6685 -1.35197 1.62126 -0.202362 0.23622 -0.23622 0.337795 -0.43937 0.608661c-0.169291,0.202362 -0.303937,0.337795 -0.405512,0.405512 -0.135433,0.0669291 -0.23622,0.0669291 -0.337795,-0.0338583 -0.0338583,-0.0338583 -0.101575,-0.101575 -0.168504,-0.237008l-0.101575 -0.134646c-0.0338583,-0.0338583 -0.0669291,-0.0677165 -0.101575,-0.135433 -0.0338583,-0.0338583 -0.0338583,-0.101575 -0.0338583,-0.202362 0.0338583,-0.101575 0.0685039,-0.20315 0.169291,-0.303937l0.405512 -0.473228 0.844094 -0.945669 0.811024 -0.979528c0.405512,-0.473228 0.574016,-0.743307 0.540157,-0.811024l-0.405512 0.303937 -0.574016 0.43937 -0.540157 0.473228 -0.43937 0.337795c-0.23622,0.202362 -0.43937,0.371654 -0.675591,0.472441 -0.23622,0.135433 -0.371654,0.135433 -0.473228,0.0677165 -0.270079,-0.337795 -0.337008,-0.641732 -0.23622,-0.877953 0.101575,-0.20315 0.202362,-0.440157 0.337795,-0.709449l0.43937 -0.811024 0.371654 -0.641732c0.134646,-0.270079 0.202362,-0.405512 0.168504,-0.405512 -0.0677165,-0.0677165 -0.371654,0.270079 -0.945669,1.01339l-0.675591 0.844882 0 -1.62205 1.48583 -1.75591 0.101575 -0.135433 0.135433 -0.202362 0.23622 -0.303937c0.0677165,-0.101575 0.135433,-0.169291 0.237008,-0.20315 0.0669291,-0.0338583 0.134646,0 0.23622,0.0677165l0.101575 0.0677165 0.0669291 0.101575c0.303937,0.23622 0.507087,0.472441 0.574803,0.675591 0.0330709,0.202362 0,0.405512 -0.102362,0.607087 -0.235433,0.371654 -0.506299,0.811024 -0.810236,1.38583 -0.270079,0.574016 -0.405512,0.911811 -0.405512,1.01339l0.0338583 0 0.0677165 0 0.135433 -0.135433 0.270079 -0.20315 0.473228 -0.404724c0.134646,-0.101575 0.472441,-0.371654 0.945669,-0.743307l0.473228 -0.337795zm0 6.21575l0 1.62047c-0.0346457,0 -0.0346457,-0.0330709 -0.0685039,-0.0330709 -0.0338583,-0.0338583 -0.100787,-0.0677165 -0.168504,-0.135433l-0.134646 -0.135433c0,0 -0.0685039,-0.0338583 -0.101575,-0.134646 -0.0677165,-0.135433 0.101575,-0.506299 0.404724,-1.01339l0.0685039 -0.168504zm-4.25669 -8.0063l0.23622 -0.0338583 0.607874 -0.134646c0.371654,-0.101575 0.574803,-0.169291 0.641732,-0.23622 0.135433,-0.169291 0.169291,-0.337795 0.20315,-0.43937 0,-0.135433 0,-0.270079 -0.0677165,-0.371654 -0.0677165,-0.101575 -0.168504,-0.23622 -0.270079,-0.371654l-0.844882 -0.743307 -0.23622 -0.23622 -0.270079 -0.303937 0 1.5874c0.0338583,0.0677165 0.0338583,0.101575 0,0.135433l0 1.14803zm0 -2.87087l0 1.5874c0,0 -0.0338583,-0.0338583 -0.0338583,-0.0677165 -0.743307,-0.743307 -1.0811,-1.14882 -1.04724,-1.18189 0.169291,-0.371654 0.303937,-0.574016 0.405512,-0.675591 0.0677165,-0.0677165 0.135433,-0.101575 0.20315,-0.101575 0.0669291,0.0338583 0.134646,0.101575 0.235433,0.168504l0.237008 0.270866zm0 1.72283l0 1.14803 -0.506299 0.135433c-0.540945,0.135433 -0.844882,0.202362 -0.980315,0.23622 -0.0330709,0.0338583 -0.100787,0.0338583 -0.168504,0.0677165l0 -1.11496 0.303937 -0.0669291 0.979528 -0.237008c0.20315,-0.0338583 0.303937,-0.101575 0.371654,-0.134646l0 -0.0338583zm0 3.44488l0 1.62205 -1.18189 1.51969c-0.0338583,0.0677165 -0.135433,0.0338583 -0.270866,-0.0669291 -0.100787,-0.0685039 -0.168504,-0.135433 -0.202362,-0.20315l0 -0.877953 1.65512 -1.9937zm-4.45906 -0.100787l0 -2.19606 0.0338583 0 0 2.22992 -0.0338583 -0.0338583zm0 -5.87717l0.0338583 0 0 1.1811 -0.0338583 0 0 -1.1811zm0 1.1811zm0 -3.78268l0.0338583 0 0 1.45276 -0.0338583 0 0 -1.45276zm0 1.45276zm0 -3.20945l0 -0.776378c0,0.0330709 0,0.0669291 0.0338583,0.100787l0 0.675591 -0.0338583 0zm0 -2.02598l0 -0.20315 0.0338583 0 0 0.23622c-0.0338583,0 -0.0338583,-0.0330709 -0.0338583,-0.0330709zm2.80394 6.65433l0 -1.58819c0.101575,0.169291 0.168504,0.43937 0.168504,0.709449 0,0.135433 0,0.270079 -0.0330709,0.405512 -0.0338583,0.134646 -0.0677165,0.270079 -0.101575,0.43937 -0.0338583,0 -0.0338583,0.0338583 -0.0338583,0.0338583zm0 -1.58819c0,-0.0338583 0,-0.0338583 -0.0338583,-0.0338583 -0.0338583,-0.100787 -0.0677165,-0.168504 -0.101575,-0.202362 0,-0.0338583 -0.0330709,-0.0677165 -0.0669291,-0.101575l-0.20315 -0.270079c-0.134646,-0.169291 -0.23622,-0.270079 -0.337795,-0.371654 -0.101575,-0.0669291 -0.202362,-0.135433 -0.337795,-0.202362l-0.135433 -0.101575 -0.100787 -0.0677165 -0.0338583 -0.0669291 -0.100787 -0.20315c-0.0346457,-0.101575 -0.0685039,-0.168504 -0.0685039,-0.202362 -0.0669291,-0.0677165 -0.202362,-0.101575 -0.371654,-0.0346457 -0.168504,0.0346457 -0.438583,0.237008 -0.810236,0.507087l-0.0677165 0.0677165 0 1.45276 0.20315 -0.169291 0.269291 -0.168504c0.20315,-0.101575 0.338583,-0.169291 0.405512,-0.169291 0.101575,0 0.20315,0.0338583 0.337795,0.135433 0.0677165,0.0677165 0.13622,0.134646 0.237008,0.202362 0.0677165,0.0677165 0.134646,0.135433 0.202362,0.237008 0.135433,0.168504 0.270079,0.370866 0.337795,0.540157 0.0338583,0.101575 -0.0338583,0.168504 -0.134646,0.270079 -0.101575,0.0677165 -0.237008,0.135433 -0.43937,0.23622 -0.23622,0.0677165 -0.472441,0.101575 -0.675591,0.101575l-0.237008 0c-0.0669291,0 -0.134646,0 -0.202362,-0.0338583 -0.100787,0 -0.202362,0 -0.303937,-0.0330709l0 1.1811c0.270866,0.0346457 0.506299,0.0685039 0.709449,0.0346457l0.405512 0c0.100787,0 0.237008,-0.0346457 0.337795,-0.0346457 0.270079,-0.0330709 0.472441,-0.100787 0.641732,-0.168504 0.101575,-0.0669291 0.202362,-0.101575 0.270079,-0.168504 0.169291,-0.135433 0.303937,-0.304724 0.405512,-0.574016l0 -1.58819zm0 4.32362l-0.168504 0.0338583 -0.507087 0.101575 -0.574016 0.135433c-0.473228,0.134646 -0.979528,0.270079 -1.52047,0.404724l0 2.22992 0.303937 0.337795 0.270866 0.23622c0.202362,0.23622 0.371654,0.371654 0.472441,0.43937 0.135433,0.0677165 0.23622,0.0330709 0.337795,-0.0338583l0.101575 -0.0677165 0.100787 -0.101575c0.101575,-0.101575 0.135433,-0.303937 0.0338583,-0.574016 -0.0677165,-0.169291 -0.168504,-0.337795 -0.337795,-0.540157 -0.134646,-0.20315 -0.371654,-0.43937 -0.641732,-0.743307 -0.0330709,-0.0338583 -0.0330709,-0.0338583 0,-0.0677165 0.0338583,-0.0338583 0.169291,-0.100787 0.337795,-0.168504l1.04724 -0.270079c0.337795,-0.101575 0.574803,-0.169291 0.743307,-0.237008l0 -1.11496zm0 4.96614l-0.0338583 0.0338583c-0.134646,0.168504 -0.168504,0.370866 -0.101575,0.540157 0.0338583,0.101575 0.0677165,0.202362 0.135433,0.303937l0 -0.877953zm-2.77008 -12.3299l0 -0.675591 0 0.20315 0 0.472441zm0 -1.99291c0,0.0338583 0,0.0677165 0.0338583,0.135433 0.0338583,0.0669291 0.101575,0.100787 0.169291,0.100787l1.62126 0.135433c0.0669291,0 0.134646,-0.0338583 0.168504,-0.0338583 0.0338583,-0.0330709 0.0677165,-0.0677165 0.0677165,-0.101575l0.0338583 -0.0669291c0.0338583,-0.101575 0.0338583,-0.169291 0.0338583,-0.270866 -0.0338583,-0.0669291 -0.0338583,-0.134646 -0.0677165,-0.202362 -0.0677165,-0.100787 -0.169291,-0.169291 -0.270079,-0.134646l-1.68898 0.101575 -0.0338583 0c-0.0338583,0.0330709 -0.0677165,0.0669291 -0.0677165,0.100787l0 0.23622zm-0.0338583 -0.23622l0 0.20315 0 -0.102362 0 -0.100787zm0 1.45276c-0.0330709,-0.135433 -0.0669291,-0.270866 -0.0669291,-0.405512 -0.0338583,-0.270866 -0.101575,-0.473228 -0.169291,-0.574803l-0.0338583 -0.0669291c-0.23622,-0.23622 -0.506299,-0.405512 -0.844094,-0.43937 -0.371654,-0.0669291 -0.743307,-0.0338583 -1.18268,0.0338583 -0.404724,0.100787 -0.811024,0.23622 -1.24961,0.405512 -0.101575,0.0669291 -0.23622,0.100787 -0.337795,0.168504l0 1.35118c0.168504,-0.0677165 0.337795,-0.168504 0.540157,-0.23622 0.303937,-0.101575 0.64252,-0.23622 1.04724,-0.337795 0.811024,-0.202362 1.28346,-0.169291 1.4189,0.0677165 0.101575,0.134646 0.0677165,0.337795 -0.101575,0.607874 -0.100787,0.134646 -0.168504,0.270079 -0.270079,0.337795 -0.0338583,0.0677165 -0.0677165,0.101575 -0.101575,0.135433 -0.0669291,0.0669291 -0.100787,0.100787 -0.168504,0.134646 -0.337795,0.237008 -0.608661,0.438583 -0.810236,0.540945 -0.270866,0.168504 -0.574803,0.337795 -0.946457,0.472441l-0.607874 0.23622 0 1.4189c0.202362,-0.0677165 0.405512,-0.134646 0.607874,-0.202362 0.168504,-0.0338583 0.405512,-0.135433 0.709449,-0.270866l0.237008 -0.100787c0.0330709,0 0.0669291,-0.0338583 0.100787,-0.0338583l0.0338583 -0.0338583 0.100787 -0.0669291 0.101575 -0.0685039 0.135433 -0.0669291c0.979528,-0.607874 1.5874,-1.31732 1.85748,-2.19606l0 -0.0338583 0 -0.776378zm0 2.53307l0 1.45276 -0.0330709 0.0338583 -0.710236 0.574016c0,0.101575 0.0338583,0.168504 0.101575,0.23622 0.101575,0.135433 0.303937,0.23622 0.574803,0.304724l0.0669291 0 0 1.1811c-0.202362,-0.0330709 -0.337795,-0.0669291 -0.472441,-0.134646 0,0 -0.0338583,0 -0.101575,0.0338583 -0.0338583,0.0677165 -0.101575,0.135433 -0.135433,0.270079l-0.202362 0.709449 -0.135433 0.473228 -0.134646 0.43937c-0.0677165,0.23622 -0.169291,0.438583 -0.270079,0.641732l-0.101575 0.134646c-0.0677165,0.0338583 -0.169291,0.0677165 -0.270079,0.0338583 -0.101575,-0.0338583 -0.20315,-0.101575 -0.304724,-0.202362 -0.201575,-0.270866 -0.23622,-0.540945 -0.134646,-0.844882 0.0677165,-0.202362 0.134646,-0.43937 0.23622,-0.708661 0.0677165,-0.303937 0.169291,-0.64252 0.237008,-0.912598 0.0669291,-0.337795 0.134646,-0.675591 0.202362,-0.945669l-1.9252 1.41811c-0.135433,0.101575 -0.270079,0.13622 -0.371654,0.101575l0 -1.01339 3.88425 -3.27638zm0 6.28268c-0.100787,0.0338583 -0.202362,0.0677165 -0.270079,0.101575 -0.135433,0.0338583 -0.303937,0.135433 -0.43937,0.270079 -0.168504,0.135433 -0.270079,0.304724 -0.337795,0.473228 -0.0669291,0.202362 -0.0669291,0.337795 0.0338583,0.404724l1.01339 0.946457 0 -2.19606zm-3.91811 -2.02598c0,0 0,0.0330709 0.0338583,0.0330709l0 -1.01339 -0.0338583 0 0 0.980315zm0 -4.35827l0.0338583 0 0 1.4189 -0.0338583 0 0 -1.4189zm0 1.4189zm0 -4.72913l0.0338583 0 0 1.35118 -0.0338583 0 0 -1.35118zm0 1.35118zm0 -3.27638l0.0338583 0 0 1.04724 -0.0338583 0 0 -1.04724zm0 1.04724zm0 -3.54646l0.0338583 0 0 1.48583 -0.0338583 0 0 -1.48583zm0 1.48583zm0 -2.5l0 -0.574016 0.0338583 0.574016 0.101575 -0.0330709c0.270079,-0.135433 0.337008,-0.371654 0.202362,-0.777165l-0.0677165 -0.101575c-0.0338583,-0.134646 -0.134646,-0.202362 -0.23622,-0.23622l-0.0338583 0 0 0.574016 0.0338583 0.574016 -0.0338583 0zm0 -1.35118l0 -2.02598 0.169291 0.404724 0.23622 0.607874c0.0338583,0.270866 0.0669291,0.473228 0.0338583,0.641732 -0.0338583,0.169291 -0.169291,0.304724 -0.405512,0.371654l-0.0338583 0zm0.0338583 5.91181c0.371654,-0.0677165 0.709449,-0.101575 1.04724,-0.135433 0.607874,-0.0669291 0.979528,-0.100787 1.14803,-0.100787l0.20315 0c0.0677165,0 0.134646,-0.0338583 0.168504,-0.0338583 0.0677165,-0.0338583 0.101575,-0.101575 0.135433,-0.20315l0 -0.641732c0,-0.0338583 0,-0.0677165 -0.0338583,-0.100787 -0.0338583,-0.0677165 -0.135433,-0.135433 -0.270079,-0.135433l-0.270079 0 -0.43937 0.0338583 -0.574803 0.0677165c-0.202362,0.0338583 -0.574016,0.0669291 -1.11417,0.202362l0 1.04724zm0 -2.06063c0.23622,-0.135433 0.405512,-0.23622 0.540157,-0.303937 0.169291,-0.100787 0.23622,-0.169291 0.270079,-0.23622 0.0338583,-0.0338583 0.0685039,-0.0677165 0.0685039,-0.101575 0,-0.0338583 -0.0346457,-0.169291 -0.102362,-0.371654l-0.0330709 -0.134646c-0.0338583,-0.135433 -0.135433,-0.20315 -0.237008,-0.270866 -0.100787,-0.0669291 -0.202362,-0.100787 -0.270079,-0.100787 -0.100787,0 -0.169291,0 -0.23622,0.0338583l0 1.48583zm-0.0338583 -5.87717l0 2.02598 0 -2.05984 0 0.0338583zm0 2.22913l0 0.574016m0 0l0 -0.574016c-0.0677165,0 -0.134646,0 -0.23622,0.0677165l-0.20315 0.0677165 -0.23622 0.100787 -1.0811 0.540945 -0.337795 0.134646 0 1.21654 0.0338583 0 0.473228 -0.237008 0.607874 -0.270079 0.337795 -0.135433 0.370866 -0.168504 0.270866 -0.169291 0 -0.574016zm0 1.58819l0 1.48583c-0.0338583,0.0338583 -0.0677165,0.0677165 -0.101575,0.0677165l-0.979528 0.540157 -0.574016 0.303937 -0.43937 0.20315 0 -0.844882c0.270079,-0.168504 0.473228,-0.270079 0.574016,-0.337795 0.169291,-0.0677165 0.237008,-0.134646 0.237008,-0.202362l-0.101575 0.0338583 -0.303937 0.0338583 -0.405512 0.0669291 0 -0.844094 1.01339 -0.202362c0.608661,-0.169291 0.979528,-0.270079 1.0811,-0.303937zm0 2.49921c-0.134646,0 -0.270866,0.0338583 -0.405512,0.0677165l-0.911811 0.202362 -0.540157 0.101575 -0.237008 0 0 1.04724 0.169291 -0.0338583c0.371654,-0.101575 0.810236,-0.168504 1.35118,-0.270866 0.168504,-0.0330709 0.371654,-0.0330709 0.574016,-0.0669291l0 -1.04724zm0 1.9252l0 1.35118c-0.101575,0.0677165 -0.23622,0.101575 -0.303937,0.169291 -0.0677165,0.0669291 -0.135433,0.100787 -0.202362,0.134646 -0.0677165,0.0338583 -0.135433,0.101575 -0.20315,0.169291 -0.270079,0.168504 -0.473228,0.337795 -0.641732,0.506299 -0.169291,0.135433 -0.303937,0.270866 -0.370866,0.405512 -0.169291,0.23622 -0.20315,0.43937 -0.102362,0.607874 0.0677165,0.101575 0.20315,0.20315 0.43937,0.23622 0.202362,0 0.473228,0 0.743307,-0.0669291l0.641732 -0.20315 0 1.4189 -0.0338583 0c-0.237008,0.0338583 -0.438583,0.0677165 -0.641732,0.101575 -0.607874,0.0677165 -1.0811,-0.0338583 -1.4189,-0.303937l0 -2.97244c0.237008,-0.304724 0.507087,-0.574803 0.811024,-0.811024l0.270079 -0.168504 0.303937 -0.20315c0.20315,-0.134646 0.438583,-0.23622 0.709449,-0.371654zm0 6.68819l0 0.980315c-0.0338583,-0.0346457 -0.0677165,-0.0346457 -0.0677165,-0.0685039 -0.100787,-0.100787 -0.134646,-0.23622 -0.168504,-0.405512 0,-0.168504 0,-0.303937 0.0677165,-0.337008l0.168504 -0.169291zm-2.09449 -14.4575l1.01339 -0.168504c0.0677165,0 0.101575,0.0338583 0.135433,0.0669291 0.0338583,0.0677165 0.0677165,0.169291 0.100787,0.303937l0.135433 0.371654c0.101575,0.20315 0.20315,0.337795 0.303937,0.371654 0.101575,0.0677165 0.237008,0.0677165 0.405512,0.0338583l0 -2.05984 -0.0677165 -0.237008c-0.100787,-0.20315 -0.134646,-0.405512 -0.20315,-0.608661 -0.0669291,-0.201575 -0.168504,-0.370866 -0.30315,-0.472441 -0.135433,-0.100787 -0.270866,-0.168504 -0.371654,-0.134646l-0.0677165 0.0338583c-0.169291,0.100787 -0.270079,0.202362 -0.371654,0.303937 -0.0677165,0.0677165 -0.168504,0.168504 -0.168504,0.23622 -0.0338583,0.100787 -0.0338583,0.202362 0,0.303937l0.100787 0.337795 -0.641732 0.134646 0 1.18268zm0 -2.33071l0 -1.24961c0.0338583,0 0.0677165,-0.0338583 0.135433,-0.0338583 0.101575,-0.0338583 0.237008,-0.101575 0.371654,-0.20315 0.270079,-0.134646 0.404724,-0.303937 0.404724,-0.472441 -0.0330709,-0.23622 -0.337795,-0.43937 -0.911811,-0.641732l0 -1.35197c0.101575,0 0.20315,0.0338583 0.303937,0.0685039 0.405512,0.134646 0.777165,0.303937 1.04724,0.506299 0.270866,0.237008 0.472441,0.506299 0.540945,0.810236l0 0.0677165c0.0338583,0.135433 -0.0338583,0.337795 -0.101575,0.574803 -0.0677165,0.270079 -0.168504,0.472441 -0.270079,0.675591 -0.101575,0.202362 -0.169291,0.371654 -0.23622,0.472441 -0.372441,0.337795 -0.777165,0.608661 -1.28425,0.777165zm0 -9.08661l0 -0.169291 0.135433 0.0338583 -0.135433 0.135433zm0 -0.169291l0 0.169291 -1.85748 2.63465 0 -1.18189 1.21575 -1.75669 0.641732 0.134646zm0 5.30315l0 1.35197c-0.100787,-0.0338583 -0.23622,-0.0677165 -0.337795,-0.101575 -0.405512,-0.0669291 -0.74252,-0.135433 -1.08031,-0.169291 -0.169291,-0.0338583 -0.304724,-0.0338583 -0.43937,-0.0338583l0 -1.21575c0.270079,-0.0338583 0.574016,0 0.877953,0.0338583 0.337795,0.0338583 0.675591,0.0677165 0.979528,0.134646zm0 2.70315l0 1.24961c-0.405512,0.135433 -0.877953,0.23622 -1.38504,0.270079l-0.168504 0 -0.135433 0 -0.100787 0 -0.0677165 0 0 -1.35118 0.641732 0c0.23622,0 0.574016,-0.0338583 0.945669,-0.100787 0.101575,0 0.169291,-0.0338583 0.202362,-0.0338583 0,-0.0338583 0.0338583,-0.0338583 0.0677165,-0.0338583zm0 2.39764l0 1.18268 -1.89213 0.337795 0 -1.11496 1.89213 -0.405512zm0 3.27717l0 1.21654 -0.303937 0.134646 -0.844882 0.404724c-0.30315,0.101575 -0.438583,0.237008 -0.404724,0.304724l0.20315 -0.0338583 0.641732 -0.101575 0.708661 -0.169291 0 0.844882 -0.877953 0.23622 -0.979528 0.237008 0 -2.12835 0.911811 -0.43937 0.945669 -0.506299zm0 3.0063c-0.100787,0.0338583 -0.202362,0.101575 -0.303937,0.168504l-1.0811 0.607874c-0.168504,0.101575 -0.337795,0.169291 -0.472441,0.270866l0 1.45197 0.134646 0 0.23622 -0.0338583 0.87874 -0.202362 0.607874 -0.101575 0 -1.04724c-0.134646,0.0346457 -0.23622,0 -0.23622,-0.0338583 0,-0.0330709 0.101575,-0.100787 0.23622,-0.202362l0 -0.0330709 0 -0.844882zm0 4.22205l0 2.97244c-0.134646,-0.100787 -0.270079,-0.23622 -0.337795,-0.371654 -0.0677165,-0.100787 -0.101575,-0.202362 -0.135433,-0.337795 -0.0669291,-0.134646 -0.0669291,-0.270079 -0.100787,-0.404724 0,-0.270079 0.0338583,-0.574803 0.100787,-0.946457 0.0677165,-0.269291 0.237008,-0.540157 0.43937,-0.844094 0,-0.0338583 0.0338583,-0.0677165 0.0338583,-0.0677165zm-1.89213 -3.1748l0.0346457 0 0 1.45197 -0.0346457 0 0 -1.45197zm0 1.45276zm0 -2.43228l0.0346457 0 0 -2.12835 -0.0346457 0 0 2.12835zm0 -7.22913l0.0346457 0 0 -1.35118 -0.0346457 0 0 1.35118zm0 -3.17559l0.0346457 0 0 -1.21575 -0.0346457 0 0 1.21575zm0 -3.54646l0.0346457 0 0 -1.18189 -0.0346457 0 0 1.18189zm0 -1.18189l0 1.18189 -0.844094 1.24961 -0.709449 -0.134646 -1.0811 -4.79606 0.777165 0.134646 0.87874 3.81654 0.97874 -1.45197zm0 3.51339l0 1.21575c-0.168504,-0.0338583 -0.337008,-0.0338583 -0.472441,-0.0338583 -0.100787,0.0338583 -0.202362,0.0338583 -0.270079,0.0338583 -0.0677165,0 -0.134646,0 -0.270079,0.0338583 -0.303937,0.0338583 -0.540945,0.101575 -0.777165,0.135433 -0.202362,0.0669291 -0.405512,0.134646 -0.506299,0.202362 -0.270866,0.135433 -0.405512,0.303937 -0.405512,0.473228 0,0.168504 0.101575,0.30315 0.303937,0.405512 0.168504,0.134646 0.405512,0.235433 0.675591,0.337795l0.709449 0.134646 0.641732 0.0677165c0.101575,0.0330709 0.23622,0.0330709 0.370866,0.0330709l0 1.35197 -0.100787 0 -0.202362 0c-0.337795,-0.0338583 -0.574016,-0.0677165 -0.777165,-0.101575 -0.23622,-0.0338583 -0.473228,-0.101575 -0.675591,-0.135433 -0.202362,-0.0677165 -0.405512,-0.134646 -0.607874,-0.202362 -0.608661,-0.337795 -1.21575,-0.811024 -1.24961,-1.45276 0,-0.101575 0.0338583,-0.23622 0.0338583,-0.371654 0.0338583,-0.101575 0.0677165,-0.23622 0.134646,-0.370866 0.101575,-0.270866 0.270866,-0.507087 0.540157,-0.811024 0.169291,-0.202362 0.43937,-0.371654 0.777165,-0.540945 0.337795,-0.168504 0.743307,-0.270079 1.14882,-0.337795l0.303937 -0.0669291 0.371654 0 0.30315 0zm0 5.67402l0 1.11496m0 2.70315l0 2.12756 -0.472441 0.101575c-0.371654,0.0677165 -0.675591,0.134646 -0.911811,0.168504 -0.0677165,0.0338583 -0.135433,-0.0338583 -0.202362,-0.168504 -0.0677165,-0.20315 -0.101575,-0.473228 -0.0338583,-0.811024 0.0338583,-0.303937 0.168504,-0.540157 0.404724,-0.709449 0.20315,-0.100787 0.507087,-0.303937 0.946457,-0.540157l0.269291 -0.168504zm0 3.10709l0 1.45276 -0.134646 0c-0.202362,0.0330709 -0.303937,-0.0338583 -0.337795,-0.101575 -0.0338583,-0.0338583 -0.0338583,-0.0677165 -0.0338583,-0.100787l0 -0.440157 0 -0.168504 0.0338583 -0.168504c0.0338583,-0.101575 0.0677165,-0.169291 0.169291,-0.237008 0.0677165,-0.0669291 0.168504,-0.134646 0.30315,-0.23622zm0 -6.9252l-2.66772 0.574803c-0.135433,0 -0.202362,0.101575 -0.270866,0.270866 -0.0338583,0.134646 -0.0669291,0.303937 -0.0338583,0.472441 0.0677165,0.23622 0.169291,0.337795 0.337795,0.303937l2.63465 -0.507087 0 -1.11496z"/>
  <path id="_255923136" class="fil0" d="M82.6969 83.615l0.135433 0.101575 0.574803 0.507087c0.168504,0.168504 0.270079,0.303937 0.337795,0.438583 0.0669291,0.135433 0.0330709,0.237008 -0.0338583,0.303937 -0.0338583,0.0677165 -0.135433,0.101575 -0.270866,0.169291l-0.134646 0.100787c-0.0338583,0.0338583 -0.101575,0.0685039 -0.135433,0.0685039 -0.0677165,0.0330709 -0.135433,0.0330709 -0.23622,0.0330709 -0.0677165,-0.0330709 -0.135433,-0.101575 -0.237008,-0.169291l0 -1.55354zm0 -2.46614l0 -1.38425 1.95984 1.5874 0.134646 0.134646 0.270079 0.169291 0.507087 0.371654c0.202362,0.135433 0.303937,0.270079 0.23622,0.337795l-0.0677165 0.101575c-0.168504,0.168504 -0.337795,0.303937 -0.574016,0.371654 -0.23622,0.0330709 -0.473228,0 -0.641732,-0.169291l-0.371654 -0.337795 -0.270079 -0.23622 -0.23622 -0.169291 -0.743307 -0.607874 -0.20315 -0.169291zm-1.04724 2.93937l0 -1.52047 0.64252 0.641732 0.202362 0.237008 0.202362 0.168504 0 1.55354 -0.0330709 -0.0330709 -0.473228 -0.473228 -0.540945 -0.574016zm1.04724 -4.32362l0 1.38425 -0.438583 -0.337795 -0.608661 -0.506299 0 -1.38504 1.04724 0.844882zm-2.12756 8.10709l0 -1.25039 0.709449 0.641732c0.0669291,0.0677165 0,0.169291 -0.135433,0.303937 -0.135433,0.135433 -0.303937,0.237008 -0.507087,0.304724l-0.0669291 0zm0 -2.1622l0 -2.09449 0.168504 0.270866 0.303937 0.438583c0.20315,0.270079 0.337795,0.506299 0.405512,0.743307 0.101575,0.237008 0.101575,0.405512 0.0338583,0.506299 -0.371654,0.20315 -0.675591,0.270079 -0.911811,0.135433zm0 -2.73622l0.74252 0.777165 0.337795 0.337795 0 -1.52047 -1.08031 -1.0811 0 1.48661zm0 -3.47874l0.134646 0.100787 0.20315 0.169291 0.574016 0.438583 0.168504 0.101575 0 -1.38504 -0.945669 -0.743307 -0.100787 -0.100787 -0.0338583 -0.0338583 0 1.45276zm0 -1.45276l0 1.45276 -0.0677165 -0.0338583 -0.371654 -0.304724 -0.134646 -0.100787 -0.101575 -0.0677165c-0.135433,-0.135433 -0.270079,-0.270079 -0.337795,-0.371654 -0.101575,-0.135433 -0.0677165,-0.270079 0.0338583,-0.405512 0.0338583,-0.0338583 0.0677165,-0.100787 0.168504,-0.168504 0.270866,-0.20315 0.507087,-0.23622 0.743307,-0.0677165l0.0677165 0.0677165zm0 3.44488l0 1.48661 -0.135433 -0.134646c-0.472441,-0.43937 -0.74252,-0.64252 -0.776378,-0.608661l0.23622 0.43937 0.43937 0.607874 0.23622 0.337795 0 2.09449c-0.202362,-0.101575 -0.43937,-0.23622 -0.709449,-0.404724l-0.743307 -0.507087 -0.641732 -0.43937c-0.23622,-0.168504 -0.371654,-0.237008 -0.405512,-0.202362 -0.0338583,0.0677165 0.270079,0.405512 0.945669,1.04646l1.55433 1.4189 0 1.25039c-0.202362,0 -0.371654,-0.0677165 -0.473228,-0.169291l-2.6685 -2.63465 0 -2.39843c0.337795,0.270079 0.743307,0.540157 1.24961,0.877953 0.574803,0.338583 0.87874,0.507087 1.01417,0.507087l0 -0.0338583 0 -0.0677165 -0.101575 -0.168504 -0.20315 -0.303937 -0.337795 -0.507087c-0.134646,-0.134646 -0.337795,-0.472441 -0.675591,-1.01339l-0.438583 -0.675591 -0.303937 -0.540157c-0.0346457,-0.0677165 0,-0.169291 0.134646,-0.270079 0.169291,-0.20315 0.43937,-0.337795 0.709449,-0.473228 0.303937,-0.101575 0.540157,-0.0677165 0.675591,0.0669291l1.4189 1.4189zm-3.14173 7.73543l0.168504 0.237008c0.135433,0.20315 0.338583,0.303937 0.574803,0.303937 0.23622,0 0.473228,-0.0677165 0.641732,-0.20315l0.101575 -0.100787c0.0669291,-0.0338583 0.0338583,-0.169291 -0.135433,-0.405512l-0.405512 -0.472441 -0.202362 -0.20315 -0.135433 -0.168504 -0.607874 -0.777165 0 1.78976zm0 -6.55276l0 2.39843 -0.877953 -0.911811 -0.135433 -0.101575 -0.202362 -0.168504 -0.23622 -0.20315 0 -0.675591 0.0330709 -0.0338583c0.304724,-0.303937 0.540945,-0.472441 0.743307,-0.506299 0.202362,-0.0338583 0.405512,0 0.607874,0.134646 0,0.0338583 0.0346457,0.0338583 0.0677165,0.0677165zm0 4.76299l0 1.78976 -0.101575 -0.202362 -0.202362 -0.270079 -0.169291 -0.237008 -0.607874 -0.776378 -0.370866 -0.473228 0 -1.75669 1.45197 1.92598zm-3.07402 3.5126l0 -2.90472 0.64252 0.979528 0 2.33071 -0.64252 -0.405512zm0 -5.77638l0 -1.41811c0.169291,-0.0338583 0.337795,0.0338583 0.473228,0.168504l0.0677165 0.135433 0.0669291 0.101575 0.0346457 0 0 1.82362 -0.20315 -0.202362 -0.169291 -0.237008 -0.134646 -0.202362 -0.135433 -0.169291zm1.62205 5.40472l0.23622 0.371654c0.0338583,0.0338583 0,0.101575 -0.0677165,0.20315l-0.101575 0.134646c-0.0338583,0 -0.0338583,0.0338583 -0.0669291,0.0338583l0 -0.743307zm-0.979528 -1.55354l0 2.33071 0.23622 0.134646c0.202362,0.101575 0.405512,0.0685039 0.640945,-0.0669291 0.0346457,-0.0338583 0.0685039,-0.0338583 0.0685039,-0.0677165 0.0338583,0 0.0338583,0 0.0338583,-0.0338583l0 -0.743307 -0.979528 -1.55354zm0.979528 -6.0126l-0.0338583 0.0330709 -0.101575 0.0685039c-0.0677165,0.100787 -0.101575,0.202362 -0.0677165,0.270079 0,0.0677165 0.0677165,0.168504 0.169291,0.23622l0.0338583 0.0677165 0 -0.675591zm0 2.49921l-0.979528 -1.35039 0 1.82362 0.270079 0.337795 0.607087 0.777165 0.102362 0.168504 0 -1.75669zm-1.62205 -1.75591l0 1.41811 -0.168504 -0.202362 -0.100787 -0.101575 -0.0685039 -0.101575c-0.134646,-0.168504 -0.202362,-0.337008 -0.270079,-0.472441 -0.0338583,-0.134646 0,-0.270079 0.135433,-0.337795 0.0338583,-0.0338583 0.100787,-0.100787 0.23622,-0.134646 0.0677165,-0.0338583 0.168504,-0.0677165 0.23622,-0.0677165zm0 4.28976l0 2.90472 -0.877953 -0.540157 -0.405512 -0.270079 -0.337795 -0.237008 -0.337795 -0.202362c-0.202362,-0.135433 -0.337795,-0.168504 -0.371654,-0.135433 -0.0338583,0 0,0.0677165 0.0338583,0.169291l0.101575 0.101575 1.82362 2.6685c0.135433,0.202362 0.102362,0.370866 -0.134646,0.506299 -0.135433,0.101575 -0.303937,0.135433 -0.506299,0.135433 -0.20315,0 -0.337795,-0.0677165 -0.406299,-0.168504l-3.20866 -5.1685c-0.0677165,-0.0677165 -0.0677165,-0.135433 0,-0.237008 0.0338583,-0.100787 0.101575,-0.168504 0.202362,-0.23622 0.135433,-0.101575 0.304724,-0.134646 0.473228,-0.134646 0.168504,0 0.303937,0.0330709 0.405512,0.168504 0.101575,0.0677165 0.405512,0.303937 0.945669,0.675591l1.28346 0.945669 0.709449 0.507087c0.101575,0.0669291 0.169291,0.100787 0.202362,0.100787 0.0338583,-0.0338583 0,-0.168504 -0.168504,-0.404724l-0.168504 -0.237008 -0.169291 -0.23622 -0.168504 -0.270079 -1.55433 -2.53386c-0.100787,-0.134646 -0.0677165,-0.303937 0.135433,-0.405512 0.134646,-0.100787 0.303937,-0.168504 0.473228,-0.168504 0.168504,0 0.269291,0.0338583 0.337795,0.135433l1.68819 2.56693z"/>
  <path id="_255923328" class="fil0" d="M89.689 75.2386c0.0677165,-0.0338583 0.134646,0 0.202362,0 0.20315,0.0677165 0.337795,0.168504 0.337795,0.473228 -0.0338583,0.134646 -0.134646,0.337008 -0.270079,0.640945l-0.168504 0.303937 -0.101575 0.20315 0 -1.62126zm0 -3.14173l0 -1.35118 1.0811 0.540157 0.979528 0.473228c0.168504,0.101575 0.23622,0.237008 0.134646,0.472441 -0.0330709,0.0338583 -0.0669291,0.102362 -0.100787,0.20315l-0.101575 0.135433c0,0 -0.0677165,0.0669291 -0.135433,0.134646 -0.134646,0.0677165 -0.506299,-0.0338583 -1.11417,-0.270079l-0.168504 -0.0677165 -0.169291 -0.0677165 -0.20315 -0.0677165 -0.0677165 -0.0338583c-0.0330709,-0.0330709 -0.0669291,-0.0330709 -0.100787,-0.0669291l-0.0338583 -0.0338583zm0 -3.34409l0 -1.38504c0.237008,0.0677165 0.506299,0.134646 0.743307,0.20315l0.404724 0.134646 0.304724 0.0677165 0.303937 0.0669291c0.134646,0 0.168504,0.0338583 0.202362,0.0338583l0.135433 0c0.405512,0.0338583 0.641732,-0.0338583 0.709449,-0.23622 0.0338583,-0.202362 -0.0338583,-0.370866 -0.20315,-0.540157 -0.168504,-0.169291 -0.438583,-0.337795 -0.743307,-0.507087 -0.337008,-0.202362 -0.574016,-0.337795 -0.709449,-0.472441 -0.134646,-0.135433 -0.202362,-0.303937 -0.168504,-0.473228 0.135433,-0.337795 0.43937,-0.43937 0.911811,-0.303937 0.135433,0.0338583 0.270866,0.0677165 0.405512,0.135433 0.169291,0.0677165 0.270079,0.168504 0.405512,0.23622 0.135433,0.0677165 0.23622,0.135433 0.303937,0.23622 0.303937,0.237008 0.472441,0.540945 0.574016,0.87874 0.135433,0.303937 0.135433,0.641732 0.0338583,0.945669 -0.0338583,0.202362 -0.100787,0.371654 -0.202362,0.506299 -0.135433,0.169291 -0.270079,0.303937 -0.43937,0.406299 -0.303937,0.235433 -0.709449,0.370866 -1.21575,0.337795 -0.473228,0 -1.01339,-0.0685039 -1.62205,-0.237008 -0.0330709,0 -0.0669291,-0.0338583 -0.134646,-0.0338583zm0 -4.79685l0 -1.11417 3.0063 0.574016 0.20315 0.0338583 0.303937 0.0330709 0.607874 0.102362c0.270079,0.0330709 0.404724,0.100787 0.371654,0.168504l-0.0338583 0.135433c-0.0338583,0.23622 -0.135433,0.43937 -0.303937,0.607874 -0.20315,0.135433 -0.405512,0.202362 -0.641732,0.168504l-0.473228 -0.135433 -0.371654 -0.0669291 -0.270079 -0.0677165 -0.945669 -0.169291 -0.811024 -0.168504 -0.641732 -0.101575zm0 -2.12756l0 -1.14882c0.0677165,-0.0338583 0.101575,-0.0338583 0.134646,-0.0338583 0.135433,-0.0330709 0.20315,-0.135433 0.20315,-0.303937l0 -0.23622 0 -0.20315 0 -0.540157c0.0338583,-0.303937 0.168504,-0.43937 0.405512,-0.405512l0.100787 0 0.0677165 0c0.0338583,0.0338583 0.0338583,0.0338583 0.0677165,0.0338583l0.20315 0.0338583c0.270079,0.0338583 0.370866,0.371654 0.303937,1.04724l0 0.169291 -0.0338583 0.168504c-0.0338583,0.337795 0.202362,0.506299 0.641732,0.540945l0.168504 0 0.20315 0c0.100787,0 0.134646,0 0.168504,0.0330709l0.270866 -0.0330709 0.370866 -0.0346457c0.0677165,0 0.101575,-0.0677165 0.101575,-0.134646l0 -0.168504 0 -0.13622 -0.0338583 -0.168504c-0.0338583,-0.23622 -0.0338583,-0.405512 -0.0338583,-0.574016 0.0338583,-0.23622 0.101575,-0.371654 0.270079,-0.43937 0.337795,-0.0677165 0.574803,-0.100787 0.641732,-0.100787 0.0677165,0 0.135433,0.0330709 0.20315,0.100787 0.0338583,0.0338583 0.0677165,0.101575 0.0677165,0.20315l0.0669291 0.472441c0.101575,0.506299 0.101575,0.945669 0.101575,1.24961 -0.0677165,0.675591 -0.371654,0.980315 -0.911811,0.912598l-2.12835 -0.169291 -0.979528 -0.0677165 -0.641732 -0.0669291zm0 -6.85748l0 -1.55354 1.45276 3.10787 1.51969 -3.64882 0.810236 -0.0338583 -1.99213 4.62835 -0.64252 0.0330709 -1.14803 -2.53307zm-1.35118 21.8213c0,0.0338583 0,0.0338583 0,0 0.20315,-0.371654 0.405512,-0.675591 0.540945,-0.87874 0.134646,-0.201575 0.270079,-0.370866 0.404724,-0.472441 0.169291,-0.134646 0.303937,-0.202362 0.405512,-0.202362l0 1.62126 -0.101575 0.202362 -0.607874 1.31732c-0.0677165,0.135433 -0.202362,0.168504 -0.371654,0.168504 -0.0669291,0 -0.168504,-0.0330709 -0.270079,-0.0330709l0 -1.72283zm1.35118 -23.3748l0 1.55354 -0.945669 -2.02677 0.709449 0 0.23622 0.473228zm0 7.2622l0 1.14882 -0.0338583 0 -1.11417 -0.135433 -0.20315 -0.0338583 0 -1.38425c0,0.0669291 0.0338583,0.100787 0.0677165,0.168504 0.101575,0.100787 0.337795,0.169291 0.674803,0.202362 0.237008,0.0338583 0.440157,0.0338583 0.608661,0.0338583zm0 2.1622l0 1.11417 -0.337795 -0.0669291 -0.709449 -0.102362 -0.270079 -0.0330709 -0.0338583 -0.0338583 0 -1.14882 1.35118 0.270866zm0 4.52598l0 1.38504c-0.371654,-0.101575 -0.743307,-0.23622 -1.11496,-0.405512 -0.0669291,-0.0338583 -0.168504,-0.0677165 -0.23622,-0.101575l0 -1.45197c0.101575,0.0677165 0.20315,0.101575 0.270079,0.169291 0.371654,0.134646 0.743307,0.270079 1.0811,0.404724zm0 3.37795l0 1.35118 -0.20315 -0.0677165 -0.269291 -0.101575c-0.13622,-0.0669291 -0.237008,-0.0669291 -0.270866,-0.0669291l-0.607874 -0.0338583 0 -2.19606 0.135433 0.169291 0.337795 0.337795c0.100787,0.101575 0.23622,0.202362 0.371654,0.337008 0.100787,0.0685039 0.23622,0.13622 0.337795,0.20315l0.168504 0.0677165zm-1.35118 -4.79685l0 -1.18189 0.303937 0.100787 0.303937 0.0677165c0.101575,0.0338583 0.20315,0.101575 0.237008,0.169291 0.0338583,0.0677165 0.0338583,0.168504 0,0.270079 -0.0338583,0.169291 -0.169291,0.337795 -0.371654,0.43937 -0.135433,0.100787 -0.303937,0.134646 -0.473228,0.134646zm0 -6.24882l0 -0.506299 0 0.269291 0 0.237008zm-0.743307 18.3417c-0.0677165,-0.100787 -0.134646,-0.168504 -0.168504,-0.23622l0 -2.16142 0.607874 0.877953c0.101575,0.134646 0.202362,0.23622 0.270079,0.270079l0.0338583 0 0 1.72283c-0.101575,-0.0338583 -0.202362,-0.101575 -0.337795,-0.135433 -0.169291,-0.100787 -0.303937,-0.202362 -0.405512,-0.337795zm0.743307 -18.848l0 0.506299 -0.0338583 0.135433 0 0.168504c-0.0338583,0.0338583 -0.0338583,0.0677165 -0.0338583,0.0677165 0.0338583,0.0338583 0.0338583,0.100787 0.0338583,0.135433 0,0.0338583 0.0338583,0.0338583 0.0338583,0.0677165l0 1.38425 -0.507087 -0.0677165c-0.168504,0 -0.303937,-0.0338583 -0.404724,-0.0338583l0 -2.66772c0.0338583,-0.0338583 0.0677165,-0.0338583 0.100787,-0.0677165 0.135433,-0.0338583 0.237008,-0.0677165 0.337795,-0.0338583 0.135433,0 0.270866,0.0677165 0.371654,0.168504 0.0677165,0.0677165 0.0677165,0.134646 0.101575,0.237008zm0 3.37717l0 1.14882 -0.202362 -0.0338583 -0.473228 -0.0677165 -0.135433 -0.0330709 -0.100787 0 0 -1.18268 0.134646 0.0677165 0.135433 0 0.641732 0.100787zm0 2.19606l0 1.18189c-0.0677165,-0.0338583 -0.134646,-0.0338583 -0.202362,-0.0669291 -0.135433,0 -0.304724,-0.0338583 -0.574803,0 -0.0338583,0 -0.100787,0 -0.134646,0.0330709l0 -1.28268 0.168504 0 0.303937 0.0330709 0.371654 0.101575 0.0677165 0zm0 2.02677l0 1.45197c-0.303937,-0.168504 -0.607874,-0.30315 -0.877953,-0.472441l-0.0338583 0 0 -1.48661c0.100787,0.0677165 0.23622,0.135433 0.371654,0.237008 0.168504,0.100787 0.337795,0.168504 0.540157,0.270079zm0 2.83701l0 2.19606 -0.473228 0 -0.438583 -0.0338583 0 -1.11496 0.337795 0c-0.101575,-0.100787 -0.20315,-0.20315 -0.337795,-0.303937l0 -1.62126 0.472441 0.472441 0.43937 0.405512zm-1.62126 7.02598c0.23622,0.371654 0.472441,0.743307 0.709449,1.14882l0 -2.16142 0 -0.0346457c-0.303937,-0.438583 -0.507087,-0.708661 -0.574803,-0.810236 0,-0.0677165 -0.0669291,-0.135433 -0.134646,-0.23622l0 2.0937zm0 -4.89764l0.709449 0.0338583 0 -1.11496 -0.405512 0 -0.303937 0 0 1.0811zm0 -2.12835c0.23622,0.237008 0.472441,0.507087 0.709449,0.743307l0 -1.62126 -0.540945 -0.540157c-0.0338583,-0.0677165 -0.100787,-0.135433 -0.168504,-0.20315l0 1.62126zm0 -2.39764c0.23622,0.168504 0.472441,0.371654 0.709449,0.540157l0 -1.48661c-0.101575,-0.0669291 -0.169291,-0.168504 -0.270079,-0.23622l-0.0338583 -0.0338583c0.0338583,-0.0677165 0.134646,-0.101575 0.303937,-0.101575l0 -1.28268c-0.101575,0 -0.237008,0.0330709 -0.337795,0.0669291 -0.135433,0.0677165 -0.270079,0.168504 -0.371654,0.23622l0 2.29764zm0.709449 -8.34331c-0.0677165,0.0330709 -0.135433,0.100787 -0.20315,0.134646 -0.0669291,0.101575 -0.100787,0.202362 -0.100787,0.303937l0 0.100787c0.0338583,0.270866 0.0669291,0.507087 0.0669291,0.64252l0 0.303937 0 0.270079c0,0.0338583 -0.0330709,0.0677165 -0.0330709,0.135433l0 0.100787 0 0.169291c-0.0338583,0 -0.0338583,0.0677165 -0.0338583,0.135433 0,0.168504 0.0338583,0.270079 0.134646,0.303937 0.0338583,0.0338583 0.101575,0.0338583 0.169291,0.0669291l0 -2.66772zm0 3.5126c-0.270079,-0.0338583 -0.473228,0.101575 -0.607874,0.405512 -0.0338583,0.134646 -0.0677165,0.202362 -0.0677165,0.23622 -0.0338583,0.169291 0,0.303937 0.134646,0.371654 0.135433,0.0669291 0.303937,0.135433 0.507087,0.169291l0.0338583 0 0 -1.18268zm-0.709449 2.53307l0 2.29764c-0.0677165,-0.0685039 -0.135433,-0.135433 -0.237008,-0.20315 -0.438583,-0.371654 -0.573228,-0.777165 -0.472441,-1.18189 0.0677165,-0.237008 0.20315,-0.43937 0.405512,-0.64252 0.100787,-0.100787 0.202362,-0.202362 0.303937,-0.270079zm0 3.07402l0 1.62126c-0.20315,-0.202362 -0.43937,-0.405512 -0.641732,-0.641732 -0.506299,-0.574016 -0.777165,-0.911811 -0.777165,-1.04646 0.0677165,-0.135433 0.135433,-0.270866 0.270866,-0.406299 0.100787,-0.134646 0.270079,-0.168504 0.472441,-0.100787l0.0669291 0.0338583 0.0677165 0.0669291c0.101575,0.0685039 0.270079,0.20315 0.540945,0.473228zm0 2.6685l0 1.0811 -0.371654 0c-0.100787,0 -0.337795,0 -0.641732,-0.0338583 -0.270079,0 -0.473228,-0.0338583 -0.607874,-0.0338583l-0.101575 -0.0330709 -0.135433 -0.0338583c-0.168504,-0.0685039 -0.23622,-0.169291 -0.168504,-0.338583 0.0330709,-0.100787 0.135433,-0.202362 0.270079,-0.337795 0.135433,-0.100787 0.270079,-0.202362 0.371654,-0.202362l0.405512 -0.0338583 0.607874 -0.0338583 0.371654 0zm0 3.88504l0 2.0937c-0.0677165,-0.0677165 -0.101575,-0.168504 -0.169291,-0.23622l-0.30315 -0.473228 -0.270866 -0.506299 -0.270079 -0.405512 -0.507087 -0.877953c-0.100787,-0.168504 -0.202362,-0.270079 -0.270079,-0.303937 -0.0677165,-0.0338583 -0.134646,0 -0.168504,0.135433 -0.507087,0.911811 -0.777165,1.38425 -0.844882,1.38425 -0.405512,-0.0669291 -0.675591,-0.134646 -0.777165,-0.202362 -0.100787,-0.0677165 -0.134646,-0.101575 -0.134646,-0.169291 -0.0338583,-0.0669291 0,-0.168504 0.0677165,-0.270079l0.20315 -0.337795 0.168504 -0.337795 0.168504 -0.303937 0.473228 -1.04724c0.101575,-0.168504 0.168504,-0.270079 0.270079,-0.370866 0.101575,-0.102362 0.202362,-0.169291 0.303937,-0.169291 0.169291,-0.0338583 0.337795,-0.0338583 0.473228,0.0330709 0.100787,0.0338583 0.23622,0.20315 0.43937,0.540945l0.337795 0.540157 0.404724 0.641732c0.202362,0.270866 0.303937,0.473228 0.405512,0.64252zm-4.76299 -1.45276c0.20315,0.101575 0.405512,0.135433 0.574803,0.101575 0.168504,-0.0338583 0.30315,-0.135433 0.370866,-0.270866 0.0677165,-0.100787 0.0677165,-0.23622 0.0346457,-0.370866 -0.0685039,-0.135433 -0.20315,-0.270866 -0.372441,-0.372441l-0.202362 -0.0669291c-0.135433,-0.0338583 -0.270866,-0.0677165 -0.337795,-0.0677165 -0.101575,0 -0.202362,0.0338583 -0.270866,0.0677165 -0.0330709,0.0338583 -0.0669291,0.0669291 -0.100787,0.100787l-0.101575 0.102362c-0.0330709,0.100787 -0.0669291,0.23622 0,0.404724 0.0677165,0.135433 0.202362,0.23622 0.405512,0.371654z"/>
  <path id="_255923040" class="fil0" d="M64.4898 96.4181l0 -1.28425 0.0346457 0c0.0677165,0 0.100787,-0.134646 0.202362,-0.371654l0.169291 -0.506299c0.0669291,-0.135433 0.134646,-0.337795 0.202362,-0.608661 0.0677165,-0.202362 0.101575,-0.438583 0.134646,-0.74252l0 -0.43937c0,-0.134646 0,-0.303937 -0.0330709,-0.438583 -0.0677165,-0.473228 -0.237008,-0.912598 -0.473228,-1.28425 -0.0338583,-0.100787 -0.101575,-0.202362 -0.168504,-0.270079l-0.0685039 -0.0669291 0 -1.21654c0.237008,0.0677165 0.473228,0.168504 0.676378,0.337795 0.270079,0.169291 0.507087,0.405512 0.708661,0.709449 0.169291,0.23622 0.304724,0.472441 0.405512,0.743307 0.0677165,0.134646 0.101575,0.303937 0.135433,0.438583 0.0338583,0.135433 0.0677165,0.270079 0.101575,0.43937 0.100787,0.574016 0.0677165,1.11496 -0.0338583,1.65512 -0.101575,0.574803 -0.270866,1.0811 -0.540945,1.55354 -0.269291,0.507087 -0.574016,0.87874 -0.979528,1.18268 -0.100787,0.0677165 -0.202362,0.135433 -0.337795,0.135433l-0.135433 0.0338583zm-11.1803 -0.270866l0 -0.709449c0,-0.0677165 0.0338583,-0.134646 0.101575,-0.202362 0.337795,-0.607874 0.675591,-1.14803 1.01339,-1.65512l0.303937 -0.473228 0.303937 -0.472441 0.270079 -0.405512 0.540945 -0.844882c0.100787,-0.202362 0.168504,-0.303937 0.168504,-0.371654 0,-0.0669291 -0.0677165,-0.134646 -0.202362,-0.134646 -1.04724,-0.0338583 -1.58819,-0.0677165 -1.58819,-0.135433 -0.134646,-0.405512 -0.168504,-0.674803 -0.168504,-0.810236 0,-0.101575 0.0338583,-0.169291 0.100787,-0.202362 0.0338583,-0.0338583 0.13622,-0.0338583 0.270866,-0.0338583l0.371654 0.0338583 0.405512 0 0.337795 0.0330709 1.14803 -0.0330709c0.169291,0 0.337795,0.0330709 0.438583,0.0669291 0.13622,0.0338583 0.237008,0.101575 0.304724,0.202362 0.0669291,0.101575 0.135433,0.270079 0.168504,0.473228 0,0.101575 -0.101575,0.303937 -0.270079,0.607874l-0.337795 0.540945 -0.43937 0.641732c-0.303937,0.472441 -0.506299,0.777165 -0.574016,0.877953 -0.0338583,0.135433 -0.168504,0.405512 -0.472441,0.877953l-0.540945 0.946457c-0.101575,0.168504 -0.135433,0.270079 -0.135433,0.371654 0,0.0330709 0,0.0330709 0.0338583,0.0330709 0.43937,0 0.777165,0.0338583 1.01339,0.101575 0.270866,0.0338583 0.473228,0.0677165 0.608661,0.169291 0.270079,0.100787 0.405512,0.23622 0.405512,0.438583l-0.0338583 0.135433 0 0.101575c0,0.134646 -0.0677165,0.202362 -0.20315,0.270079 -0.134646,0.0330709 -0.371654,0.0330709 -0.675591,0.0330709l-0.371654 0 -0.472441 -0.0330709 -1.45276 0.0330709c-0.134646,0 -0.237008,-0.100787 -0.303937,-0.269291 -0.0338583,-0.0677165 -0.0677165,-0.135433 -0.0677165,-0.20315zm0 -4.9315l0 -0.20315m11.1803 -1.82362c-0.0669291,-0.0338583 -0.100787,-0.0338583 -0.168504,-0.0338583 -0.202362,-0.0677165 -0.370866,-0.0677165 -0.506299,-0.101575 -0.135433,0 -0.303937,0 -0.540945,0.0338583l-0.134646 0.0338583 -0.20315 0.0338583c-0.235433,0.0338583 -0.404724,0.0677165 -0.506299,0.169291 -0.101575,0.0677165 -0.135433,0.202362 -0.101575,0.405512l1.01339 6.31575c0,0.0677165 0.0677165,0.135433 0.20315,0.20315 0.168504,0.0677165 0.337795,0.135433 0.540157,0.135433l0.135433 0.0338583 0.168504 0 0.100787 0 0 -1.28425c-0.0669291,-0.0338583 -0.100787,-0.202362 -0.168504,-0.473228l-0.607874 -3.98583c-0.0338583,-0.23622 0.0338583,-0.371654 0.237008,-0.405512 0.0669291,-0.0330709 0.168504,0 0.303937,0.0338583 0.0669291,0.0338583 0.168504,0.0677165 0.235433,0.102362l0 -1.21654zm-6.11339 1.28346c-0.0338583,-0.303937 -0.0338583,-0.473228 0,-0.574016 0.0338583,-0.135433 0.135433,-0.168504 0.303937,-0.168504 0.0677165,-0.0338583 0.101575,-0.0338583 0.135433,0l0.168504 -0.0338583 0.101575 0 0.134646 0 0.270866 0c0.0677165,0 0.168504,-0.0338583 0.303937,-0.0685039 0.134646,-0.0330709 0.337795,-0.0669291 0.607874,-0.168504l0.101575 0c0.134646,0 0.23622,0 0.303937,0.0677165 0.100787,0.0677165 0.202362,0.169291 0.270079,0.270079 0.0677165,0.101575 0.100787,0.237008 0.100787,0.337795 0,0.134646 -0.0330709,0.270866 -0.134646,0.371654 -0.101575,0.101575 -0.270079,0.168504 -0.506299,0.168504l-0.371654 0.0338583 -0.135433 0 -0.101575 0c-0.0330709,0.0338583 -0.0669291,0.0338583 -0.134646,0.0338583 -0.0677165,0.0338583 -0.135433,0.0677165 -0.20315,0.135433 -0.100787,0.134646 -0.134646,0.371654 -0.134646,0.709449 0.0338583,0.303937 0.0669291,0.540157 0.134646,0.743307 0.0338583,0.134646 0.135433,0.168504 0.337795,0.168504l0.237008 -0.0338583 0.202362 -0.0338583c0.20315,-0.0338583 0.371654,-0.0669291 0.507087,-0.0669291 0.30315,-0.0338583 0.472441,0.100787 0.472441,0.303937l0 0.134646 0 0.0677165 0 0.0669291 -0.0338583 0.20315c0.0338583,0.270079 -0.303937,0.405512 -0.979528,0.43937l-0.168504 0.0338583 -0.20315 0c-0.303937,0 -0.43937,0.23622 -0.404724,0.708661l0 0.135433 0.0330709 0.237008 0 0.168504 0.0677165 0.23622 0.101575 0.371654c0,0.0677165 0.0338583,0.101575 0.135433,0.101575l0.168504 -0.0338583 0.135433 -0.0338583 0.134646 -0.0338583c0.237008,-0.0677165 0.43937,-0.101575 0.574016,-0.101575 0.237008,-0.0330709 0.405512,0.0338583 0.473228,0.20315 0.134646,0.303937 0.20315,0.540157 0.20315,0.641732 0,0.0677165 0,0.135433 -0.0685039,0.169291 -0.0330709,0.0669291 -0.100787,0.100787 -0.202362,0.134646l-0.438583 0.135433c-0.540945,0.134646 -0.946457,0.202362 -1.25039,0.23622 -0.675591,0.0338583 -1.01339,-0.23622 -1.04724,-0.777165l-0.100787 -2.12835 -0.0677165 -0.97874 0 -0.709449 -0.0338583 -1.0811 0 -0.743307zm-5.06693 0.540157l0 0.20315 0 0.0338583 0 0.100787 0 -0.472441 0 0.134646zm0 4.4252l0 0.709449 0 -0.0677165 0 -0.540157 0 -0.101575zm-0.0338583 0.574803c0,0.0330709 0,0.0330709 0.0338583,0.0669291l0 -0.540157c-0.0338583,0 -0.0338583,0.0338583 -0.0338583,0.0338583l0 0.43937zm0 -4.62835c0,0 0,-0.0338583 0.0338583,-0.0338583l0 -0.472441c-0.0338583,-0.0338583 -0.0338583,-0.0677165 -0.0338583,-0.0677165l0 0.574016zm0 -0.574016l0 0.574016c0,0.0677165 -0.0338583,0.101575 -0.0338583,0.169291 -0.0669291,0.168504 -0.202362,0.371654 -0.370866,0.574016 -0.0677165,0.101575 -0.135433,0.20315 -0.20315,0.303937 -0.101575,0.0677165 -0.169291,0.169291 -0.303937,0.270866 -0.135433,0.168504 -0.337795,0.303937 -0.540157,0.472441 -0.135433,0.101575 -0.304724,0.20315 -0.43937,0.270079 -0.0338583,0 -0.0338583,0.0338583 -0.0677165,0.0677165 0,0.101575 0,0.20315 0.0677165,0.337795l0.371654 0.641732 0.23622 0.43937 0.202362 0.405512c0.101575,0.23622 0.20315,0.438583 0.237008,0.675591l0.0338583 0.168504c-0.0338583,0.0677165 -0.0677165,0.169291 -0.169291,0.20315 -0.101575,0.0669291 -0.23622,0.0669291 -0.371654,0.0669291 -0.303937,-0.0330709 -0.540157,-0.202362 -0.709449,-0.506299 -0.0338583,-0.101575 -0.0669291,-0.20315 -0.134646,-0.303937l0 -3.41181c0.0677165,-0.0338583 0.100787,-0.0677165 0.168504,-0.101575 0.0338583,-0.0338583 0.101575,-0.0669291 0.169291,-0.135433 0.0338583,-0.0669291 0.100787,-0.100787 0.168504,-0.168504 0.135433,-0.135433 0.270079,-0.337795 0.405512,-0.540157 0.101575,-0.20315 0.135433,-0.371654 0.169291,-0.473228 0,-0.168504 -0.0338583,-0.270079 -0.101575,-0.303937 -0.169291,-0.0677165 -0.405512,-0.135433 -0.607874,-0.169291l-0.337795 0 -0.0338583 0 0 -1.14803c0.100787,0 0.168504,0.0338583 0.270079,0.0338583l0.337795 0.0677165c0.0677165,0 0.101575,0 0.135433,0.0338583 0.0330709,0 0.100787,0 0.202362,0.0330709 0.23622,0.0677165 0.472441,0.237008 0.675591,0.43937 0.101575,0.101575 0.202362,0.202362 0.270079,0.303937 0.0677165,0.135433 0.134646,0.270079 0.20315,0.405512 0.0338583,0.101575 0.0669291,0.202362 0.100787,0.303937zm0 4.76299l0 0.168504 0 0.270866 0 -0.43937zm-6.72205 -7.29606l0 0c0.0677165,0.0338583 0.101575,0.0338583 0.169291,0.0338583 0.0338583,0.0338583 0.0677165,0.0338583 0.100787,0.0338583 0.0338583,0 0.101575,0.0330709 0.237008,0.100787 0.20315,0.0677165 0.371654,0.135433 0.438583,0.20315 0.473228,0.337795 0.743307,0.675591 0.844882,1.04724 0.135433,0.371654 0.135433,0.709449 0.0677165,1.04646l-0.0338583 0.20315 0 0.0669291 -0.0338583 0.101575c-0.0338583,0.23622 -0.101575,0.43937 -0.20315,0.607874 -0.100787,0.20315 -0.23622,0.338583 -0.370866,0.473228 -0.237008,0.23622 -0.540945,0.371654 -0.87874,0.473228l-0.337795 0.100787 0 -1.11417c0.169291,-0.135433 0.303937,-0.304724 0.405512,-0.507087 0.135433,-0.23622 0.23622,-0.473228 0.270079,-0.675591 0.0677165,-0.270079 0.0346457,-0.507087 -0.0677165,-0.675591 -0.0669291,-0.169291 -0.270079,-0.303937 -0.540157,-0.371654l-0.0677165 0 0 -1.14803zm4.52677 0.911811l-0.237008 0c-0.100787,0.0338583 -0.23622,0.0677165 -0.371654,0.101575l-0.202362 0.0338583 -0.101575 0 -0.0669291 -0.0338583 -0.237008 -0.0677165c-0.100787,-0.0677165 -0.168504,-0.0677165 -0.168504,-0.101575 -0.135433,0 -0.23622,0.0677165 -0.337795,0.23622 -0.0677165,0.169291 -0.135433,0.473228 -0.202362,0.945669l-0.608661 5.54016c0,0.0677165 0.0677165,0.169291 0.20315,0.270079 0.134646,0.135433 0.270079,0.169291 0.405512,0.20315 0.202362,0.0338583 0.337795,-0.101575 0.370866,-0.337795l0.371654 -2.39843c0.169291,0.23622 0.338583,0.540157 0.540157,0.844094 0.13622,0.23622 0.304724,0.540945 0.473228,0.844882 0.0677165,0.134646 0.135433,0.23622 0.169291,0.371654l0 -3.41181c-0.0338583,0.0677165 -0.101575,0.101575 -0.169291,0.135433 -0.270079,0.168504 -0.473228,0.23622 -0.641732,0.202362 -0.101575,0 -0.168504,-0.0338583 -0.23622,-0.101575l0.100787 -0.911811 0.0685039 -0.371654 0.0669291 -0.303937c0.0677165,-0.20315 0.135433,-0.337795 0.168504,-0.405512 0.0677165,-0.0669291 0.20315,-0.101575 0.371654,-0.135433l0.270866 0 0 -1.14803zm-6.95827 5.53937c-0.0346457,0.169291 0,0.337795 0.168504,0.540945 0.135433,0.168504 0.303937,0.270079 0.473228,0.303937 0.23622,0.0677165 0.371654,-0.0677165 0.404724,-0.371654l0.0338583 -0.168504 0.20315 -0.844882 0.168504 -0.675591 0.0677165 -0.303937c0.0338583,-0.135433 0.169291,-0.23622 0.405512,-0.303937l0.506299 -0.135433 0 -1.11417 -0.0330709 0.0330709c-0.169291,0.135433 -0.337795,0.20315 -0.440157,0.169291 -0.100787,-0.0338583 -0.168504,-0.0677165 -0.235433,-0.135433l0.506299 -2.29685 0.100787 0 0.101575 0 0 -1.14803c-0.0330709,0 -0.101575,0 -0.168504,-0.0338583 -0.270866,-0.0338583 -0.473228,-0.0338583 -0.675591,0 -0.169291,0.0338583 -0.270079,0.101575 -0.303937,0.23622l-1.28346 6.24882z"/>
  <path class="fil1" d="M172.22 44.4016c0.466142,0 0.840945,0.146457 1.12441,0.437795 0.283465,0.292126 0.425197,0.679528 0.425197,1.1622l0 14.8c0,0.466929 -0.133071,0.833858 -0.4,1.1 -0.266929,0.266929 -0.616535,0.400787 -1.04961,0.400787 -0.433858,0 -0.775591,-0.133858 -1.0252,-0.400787 -0.250394,-0.266142 -0.374803,-0.633071 -0.374803,-1.1l0 -10.3 -4.25039 8.05039c-0.2,0.366929 -0.416535,0.637795 -0.649606,0.812598 -0.233858,0.174803 -0.508661,0.262205 -0.825197,0.262205 -0.316535,0 -0.592126,-0.0834646 -0.825197,-0.249606 -0.233071,-0.166929 -0.449606,-0.441732 -0.649606,-0.825197l-4.27559 -7.9252 0 10.1748c0,0.450394 -0.129134,0.812598 -0.387402,1.08819 -0.258268,0.274803 -0.603937,0.412598 -1.03701,0.412598 -0.433858,0 -0.775591,-0.133858 -1.0252,-0.400787 -0.250394,-0.266142 -0.374803,-0.633071 -0.374803,-1.1l0 -14.8c0,-0.482677 0.137008,-0.870079 0.411811,-1.1622 0.275591,-0.291339 0.646457,-0.437795 1.1126,-0.437795 0.650394,0 1.15827,0.359055 1.5252,1.07559l5.55039 10.5748 5.52441 -10.5748c0.366929,-0.716535 0.858268,-1.07559 1.47559,-1.07559zm6.9748 17.9008c-0.483465,0 -0.870866,-0.150394 -1.1622,-0.450394 -0.292126,-0.3 -0.437795,-0.691339 -0.437795,-1.1748l0 -14.6756c0,-0.482677 0.145669,-0.870079 0.437795,-1.1622 0.291339,-0.291339 0.67874,-0.437795 1.1622,-0.437795 0.5,0 0.896063,0.146457 1.1874,0.437795 0.292126,0.292126 0.437795,0.679528 0.437795,1.1622l0 14.6756c0,0.483465 -0.145669,0.874803 -0.437795,1.1748 -0.291339,0.3 -0.687402,0.450394 -1.1874,0.450394zm6.97559 -0.150394c-0.483465,0 -0.862992,-0.133071 -1.1378,-0.4 -0.274803,-0.266929 -0.412598,-0.641732 -0.412598,-1.1252l0 -14.5748c0,-0.483465 0.137795,-0.858268 0.412598,-1.1252 0.274803,-0.266142 0.654331,-0.4 1.1378,-0.4l9.02441 0c0.483465,0 0.858268,0.108661 1.1252,0.325197 0.266929,0.216535 0.4,0.525197 0.4,0.925197 0,0.416535 -0.133071,0.737008 -0.4,0.962205 -0.266929,0.225197 -0.641732,0.337795 -1.1252,0.337795l-7.42441 0 0 4.84961 6.92441 0c0.483465,0 0.858268,0.108661 1.1252,0.325197 0.266929,0.216535 0.4,0.533071 0.4,0.949606 0,0.4 -0.133071,0.708661 -0.4,0.925197 -0.266929,0.216535 -0.641732,0.325197 -1.1252,0.325197l-6.92441 0 0 5.14961 7.42441 0c0.483465,0 0.858268,0.112598 1.1252,0.337795 0.266929,0.225197 0.4,0.545669 0.4,0.962205 0,0.4 -0.133071,0.708661 -0.4,0.925197 -0.266929,0.216535 -0.641732,0.325197 -1.1252,0.325197l-9.02441 0zm19.2748 0.225197c-1.28346,0 -2.49606,-0.170866 -3.6378,-0.512598 -1.14173,-0.341732 -2.07087,-0.803937 -2.7874,-1.3874 -0.383465,-0.283465 -0.574803,-0.683465 -0.574803,-1.2 0,-0.350394 0.103937,-0.654331 0.312598,-0.912598 0.207874,-0.258268 0.454331,-0.387402 0.737795,-0.387402 0.3,0 0.640945,0.116535 1.02441,0.349606 0.716535,0.516535 1.46693,0.892126 2.25039,1.1252 0.783465,0.233071 1.64961,0.349606 2.6,0.349606 1.21654,0 2.14961,-0.211811 2.8,-0.637008 0.649606,-0.425197 0.974803,-1.04567 0.974803,-1.86299 0,-0.633071 -0.303937,-1.12047 -0.912598,-1.4622 -0.607874,-0.341732 -1.62047,-0.670866 -3.03701,-0.987402 -1.46693,-0.316535 -2.65906,-0.683465 -3.57559,-1.1 -0.916535,-0.416535 -1.60787,-0.950394 -2.0748,-1.6 -0.466929,-0.650394 -0.7,-1.4748 -0.7,-2.4748 0,-1.03386 0.291339,-1.95827 0.874803,-2.77559 0.583465,-0.816535 1.39606,-1.45354 2.4378,-1.91181 1.04173,-0.458268 2.2126,-0.688189 3.5126,-0.688189 2.38346,0 4.3252,0.633858 5.8252,1.9 0.216535,0.183465 0.370079,0.362992 0.462205,0.537795 0.0913386,0.174803 0.137795,0.396063 0.137795,0.662205 0,0.350394 -0.104724,0.654331 -0.312598,0.912598 -0.208661,0.258268 -0.454331,0.387402 -0.737795,0.387402 -0.166929,0 -0.320472,-0.0244094 -0.462205,-0.0748031 -0.141732,-0.0496063 -0.329134,-0.141732 -0.562992,-0.274803 -0.683465,-0.5 -1.34567,-0.870866 -1.9874,-1.1126 -0.641732,-0.241732 -1.42913,-0.362205 -2.3622,-0.362205 -1.13386,0 -2.02913,0.229134 -2.6874,0.687402 -0.658268,0.458268 -0.987402,1.09606 -0.987402,1.9126 0,0.683465 0.291339,1.20787 0.874803,1.5748 0.583465,0.366929 1.5748,0.708661 2.9748,1.0252 1.48346,0.333071 2.6874,0.703937 3.6126,1.1126 0.925197,0.407874 1.63307,0.929134 2.1252,1.5622 0.491339,0.633071 0.737008,1.4252 0.737008,2.3748 0,1.03386 -0.287402,1.94567 -0.862205,2.7378 -0.574803,0.791339 -1.38346,1.40787 -2.4252,1.84961 -1.04173,0.441732 -2.23701,0.662992 -3.5874,0.662992zm20.9252 -2.8c1,0 1.5,0.424409 1.5,1.2748 0,0.866929 -0.5,1.3 -1.5,1.3l-10.6496 0c-0.433858,0 -0.779528,-0.129134 -1.0378,-0.387402 -0.258268,-0.258268 -0.387402,-0.587402 -0.387402,-0.987402 0,-0.4 0.133071,-0.783465 0.4,-1.15039l8.95039 -12.5252 -7.8252 0c-1,0 -1.5,-0.424409 -1.5,-1.2748 0,-0.866142 0.5,-1.3 1.5,-1.3l10.3252 0c0.433071,0 0.77874,0.129134 1.03701,0.387402 0.258268,0.258268 0.387402,0.579528 0.387402,0.962992 0,0.383465 -0.141732,0.766142 -0.424409,1.14961l-8.95039 12.5504 8.1748 0zm17.6504 0.149606c0.333858,0.316535 0.5,0.674803 0.5,1.0748 0,0.383465 -0.145669,0.72126 -0.437008,1.0126 -0.292126,0.292126 -0.637795,0.437795 -1.0378,0.437795 -0.416535,0 -0.8,-0.174803 -1.14961,-0.525197l-8.3252 -7.8 0 6.75039c0,0.483465 -0.145669,0.874803 -0.437795,1.1748 -0.291339,0.3 -0.687402,0.450394 -1.1874,0.450394 -0.483465,0 -0.870866,-0.150394 -1.1622,-0.450394 -0.292126,-0.3 -0.437795,-0.691339 -0.437795,-1.1748l0 -14.6756c0,-0.482677 0.145669,-0.870079 0.437795,-1.1622 0.291339,-0.291339 0.67874,-0.437795 1.1622,-0.437795 0.5,0 0.896063,0.146457 1.1874,0.437795 0.292126,0.292126 0.437795,0.679528 0.437795,1.1622l0 6.4252 8.04961 -7.54961c0.3,-0.3 0.641732,-0.450394 1.0252,-0.450394 0.383465,0 0.720472,0.145669 1.0126,0.437795 0.291339,0.291339 0.437795,0.629134 0.437795,1.0126 0,0.383465 -0.166929,0.733071 -0.5,1.04961l-6.7252 6.15039 7.14961 6.64961zm18.8 0.5c0.1,0.216535 0.150394,0.433858 0.150394,0.650394 0,0.383465 -0.154331,0.707874 -0.462992,0.974803 -0.307874,0.266929 -0.662205,0.4 -1.0622,0.4 -0.266929,0 -0.516535,-0.0708661 -0.749606,-0.212598 -0.233858,-0.141732 -0.417323,-0.362205 -0.550394,-0.662205l-1.5 -3.35039 -8.8 0 -1.5 3.35039c-0.133071,0.3 -0.316535,0.520472 -0.549606,0.662205 -0.233858,0.141732 -0.492126,0.212598 -0.775591,0.212598 -0.383465,0 -0.733071,-0.133071 -1.04961,-0.4 -0.316535,-0.266929 -0.474803,-0.591339 -0.474803,-0.974803 0,-0.216535 0.0496063,-0.433858 0.149606,-0.650394l6.9 -14.8252c0.150394,-0.333071 0.379528,-0.587402 0.687402,-0.762205 0.308661,-0.174803 0.637795,-0.262205 0.987402,-0.262205 0.350394,0 0.679528,0.0874016 0.987402,0.262205 0.308661,0.174803 0.537795,0.429134 0.688189,0.762205l6.92441 14.8252zm-11.8748 -4.7l6.6 0 -3.3 -7.4252 -3.3 7.4252zm27.8008 -11.1252c0.466142,0 0.837008,0.146457 1.11181,0.437795 0.275591,0.292126 0.412598,0.679528 0.412598,1.1622l0 14.6756c0,0.483465 -0.141732,0.874803 -0.424409,1.1748 -0.283465,0.3 -0.650394,0.450394 -1.1,0.450394 -0.533858,0 -0.941732,-0.192126 -1.2252,-0.575591l-9.1252 -11.8748 0 10.8252c0,0.483465 -0.133071,0.874803 -0.4,1.1748 -0.266929,0.3 -0.633071,0.450394 -1.1,0.450394 -0.466929,0 -0.833071,-0.150394 -1.1,-0.450394 -0.266929,-0.3 -0.4,-0.691339 -0.4,-1.1748l0 -14.6756c0,-0.482677 0.141732,-0.870079 0.425197,-1.1622 0.283465,-0.291339 0.658268,-0.437795 1.1252,-0.437795 0.516535,0 0.916535,0.192126 1.2,0.575591l9.1 11.8244 0 -10.8c0,-0.482677 0.137008,-0.870079 0.411811,-1.1622 0.275591,-0.291339 0.637795,-0.437795 1.08819,-0.437795zm6.92441 17.9008c-0.483465,0 -0.870866,-0.150394 -1.1622,-0.450394 -0.292126,-0.3 -0.437795,-0.691339 -0.437795,-1.1748l0 -14.6756c0,-0.482677 0.145669,-0.870079 0.437795,-1.1622 0.291339,-0.291339 0.67874,-0.437795 1.1622,-0.437795 0.5,0 0.896063,0.146457 1.1874,0.437795 0.292126,0.292126 0.437795,0.679528 0.437795,1.1622l0 14.6756c0,0.483465 -0.145669,0.874803 -0.437795,1.1748 -0.291339,0.3 -0.687402,0.450394 -1.1874,0.450394zm6.97559 -0.150394c-0.483465,0 -0.862992,-0.133071 -1.1378,-0.4 -0.274803,-0.266929 -0.412598,-0.641732 -0.412598,-1.1252l0 -14.5748c0,-0.483465 0.137795,-0.858268 0.412598,-1.1252 0.274803,-0.266142 0.654331,-0.4 1.1378,-0.4l9.02441 0c0.483465,0 0.858268,0.108661 1.1252,0.325197 0.266929,0.216535 0.4,0.525197 0.4,0.925197 0,0.416535 -0.133071,0.737008 -0.4,0.962205 -0.266929,0.225197 -0.641732,0.337795 -1.1252,0.337795l-7.42441 0 0 4.84961 6.92441 0c0.483465,0 0.858268,0.108661 1.1252,0.325197 0.266929,0.216535 0.4,0.533071 0.4,0.949606 0,0.4 -0.133071,0.708661 -0.4,0.925197 -0.266929,0.216535 -0.641732,0.325197 -1.1252,0.325197l-6.92441 0 0 5.14961 7.42441 0c0.483465,0 0.858268,0.112598 1.1252,0.337795 0.266929,0.225197 0.4,0.545669 0.4,0.962205 0,0.4 -0.133071,0.708661 -0.4,0.925197 -0.266929,0.216535 -0.641732,0.325197 -1.1252,0.325197l-9.02441 0zm25.7244 0.125197c-0.5,0 -0.895276,-0.145669 -1.1874,-0.437795 -0.291339,-0.291339 -0.437008,-0.67874 -0.437008,-1.1622l0 -13.5 -4.55039 0c-1,0 -1.5,-0.441732 -1.5,-1.3252 0,-0.883465 0.5,-1.3252 1.5,-1.3252l12.3252 0c1,0 1.5,0.441732 1.5,1.3252 0,0.883465 -0.5,1.3252 -1.5,1.3252l-4.55039 0 0 13.5c0,0.483465 -0.145669,0.870866 -0.437008,1.1622 -0.292126,0.292126 -0.679528,0.437795 -1.16299,0.437795zm23.6504 -2.15039c0.2,0.3 0.3,0.592126 0.3,0.874803 0,0.383465 -0.154331,0.7 -0.462205,0.950394 -0.308661,0.250394 -0.670866,0.374803 -1.0874,0.374803 -0.266929,0 -0.52126,-0.0622047 -0.762992,-0.187402 -0.241732,-0.125197 -0.445669,-0.312598 -0.612598,-0.562205l-3.32441 -5.05039c-0.333858,-0.533071 -0.688189,-0.907874 -1.06299,-1.1252 -0.374803,-0.216535 -0.862205,-0.324409 -1.4622,-0.324409l-2.45039 0 0 5.6c0,0.5 -0.141732,0.895276 -0.424409,1.1874 -0.283465,0.291339 -0.666929,0.437795 -1.15039,0.437795 -0.483465,0 -0.870866,-0.146457 -1.1622,-0.437795 -0.292126,-0.292126 -0.437795,-0.687402 -0.437795,-1.1874l0 -14.6252c0,-0.483465 0.137795,-0.858268 0.412598,-1.1252 0.274803,-0.266142 0.654331,-0.4 1.1378,-0.4l6.24961 0c2,0 3.52047,0.445669 4.5622,1.3378 1.04173,0.891339 1.56299,2.17874 1.56299,3.8622 0,1.36693 -0.387402,2.4874 -1.16299,3.36299 -0.774803,0.874803 -1.87087,1.43701 -3.2874,1.6874 0.483465,0.116535 0.908661,0.324409 1.27559,0.624409 0.366142,0.3 0.724409,0.717323 1.0748,1.25039l2.2748 3.4748zm-6.74961 -7.5252c1.21654,0 2.10787,-0.229134 2.6748,-0.687402 0.566142,-0.458268 0.849606,-1.1622 0.849606,-2.1126 0,-0.966142 -0.283465,-1.67008 -0.849606,-2.11181 -0.566929,-0.441732 -1.45827,-0.662992 -2.6748,-0.662992l-4.2 0 0 5.5748 4.2 0zm11.5748 9.55039c-0.483465,0 -0.862992,-0.133071 -1.1378,-0.4 -0.274803,-0.266929 -0.412598,-0.641732 -0.412598,-1.1252l0 -14.5748c0,-0.483465 0.137795,-0.858268 0.412598,-1.1252 0.274803,-0.266142 0.654331,-0.4 1.1378,-0.4l9.02441 0c0.483465,0 0.858268,0.108661 1.1252,0.325197 0.266929,0.216535 0.4,0.525197 0.4,0.925197 0,0.416535 -0.133071,0.737008 -0.4,0.962205 -0.266929,0.225197 -0.641732,0.337795 -1.1252,0.337795l-7.42441 0 0 4.84961 6.92441 0c0.483465,0 0.858268,0.108661 1.1252,0.325197 0.266929,0.216535 0.4,0.533071 0.4,0.949606 0,0.4 -0.133071,0.708661 -0.4,0.925197 -0.266929,0.216535 -0.641732,0.325197 -1.1252,0.325197l-6.92441 0 0 5.14961 7.42441 0c0.483465,0 0.858268,0.112598 1.1252,0.337795 0.266929,0.225197 0.4,0.545669 0.4,0.962205 0,0.4 -0.133071,0.708661 -0.4,0.925197 -0.266929,0.216535 -0.641732,0.325197 -1.1252,0.325197l-9.02441 0zm26.5252 -17.7504c0.466142,0 0.837008,0.146457 1.11181,0.437795 0.275591,0.292126 0.412598,0.679528 0.412598,1.1622l0 14.6756c0,0.483465 -0.141732,0.874803 -0.424409,1.1748 -0.283465,0.3 -0.650394,0.450394 -1.1,0.450394 -0.533858,0 -0.941732,-0.192126 -1.2252,-0.575591l-9.1252 -11.8748 0 10.8252c0,0.483465 -0.133071,0.874803 -0.4,1.1748 -0.266929,0.3 -0.633071,0.450394 -1.1,0.450394 -0.466929,0 -0.833071,-0.150394 -1.1,-0.450394 -0.266929,-0.3 -0.4,-0.691339 -0.4,-1.1748l0 -14.6756c0,-0.482677 0.141732,-0.870079 0.425197,-1.1622 0.283465,-0.291339 0.658268,-0.437795 1.1252,-0.437795 0.516535,0 0.916535,0.192126 1.2,0.575591l9.1 11.8244 0 -10.8c0,-0.482677 0.137008,-0.870079 0.411811,-1.1622 0.275591,-0.291339 0.637795,-0.437795 1.08819,-0.437795zm6.92441 17.9008c-0.483465,0 -0.870866,-0.150394 -1.1622,-0.450394 -0.292126,-0.3 -0.437795,-0.691339 -0.437795,-1.1748l0 -14.6756c0,-0.482677 0.145669,-0.870079 0.437795,-1.1622 0.291339,-0.291339 0.67874,-0.437795 1.1622,-0.437795 0.5,0 0.896063,0.146457 1.1874,0.437795 0.292126,0.292126 0.437795,0.679528 0.437795,1.1622l0 14.6756c0,0.483465 -0.145669,0.874803 -0.437795,1.1748 -0.291339,0.3 -0.687402,0.450394 -1.1874,0.450394zm18.7756 -17.9008c0.466142,0 0.837008,0.146457 1.11181,0.437795 0.275591,0.292126 0.412598,0.679528 0.412598,1.1622l0 14.6756c0,0.483465 -0.141732,0.874803 -0.424409,1.1748 -0.283465,0.3 -0.650394,0.450394 -1.1,0.450394 -0.533858,0 -0.941732,-0.192126 -1.2252,-0.575591l-9.1252 -11.8748 0 10.8252c0,0.483465 -0.133071,0.874803 -0.4,1.1748 -0.266929,0.3 -0.633071,0.450394 -1.1,0.450394 -0.466929,0 -0.833071,-0.150394 -1.1,-0.450394 -0.266929,-0.3 -0.4,-0.691339 -0.4,-1.1748l0 -14.6756c0,-0.482677 0.141732,-0.870079 0.425197,-1.1622 0.283465,-0.291339 0.658268,-0.437795 1.1252,-0.437795 0.516535,0 0.916535,0.192126 1.2,0.575591l9.1 11.8244 0 -10.8c0,-0.482677 0.137008,-0.870079 0.411811,-1.1622 0.275591,-0.291339 0.637795,-0.437795 1.08819,-0.437795zm18.7496 8.2252c0.383465,0 0.691339,0.112598 0.925197,0.337795 0.233071,0.225197 0.349606,0.520472 0.349606,0.887402l0 5.3748c0,0.766929 -0.1,1.30866 -0.3,1.6252 -0.2,0.316535 -0.608661,0.574803 -1.2252,0.774803 -0.666142,0.233858 -1.44173,0.416535 -2.32441,0.550394 -0.883465,0.133071 -1.73386,0.2 -2.55039,0.2 -1.81654,0 -3.39134,-0.358268 -4.7252,-1.07559 -1.33307,-0.716535 -2.35433,-1.75354 -3.0622,-3.11181 -0.708661,-1.35827 -1.0622,-2.97953 -1.0622,-4.86299 0,-1.84961 0.353543,-3.45433 1.0622,-4.8126 0.707874,-1.35827 1.7126,-2.4 3.0126,-3.12441 1.3,-0.725197 2.83307,-1.08819 4.6,-1.08819 2.34961,0 4.2748,0.633858 5.7748,1.9 0.2,0.183465 0.345669,0.366929 0.437795,0.550394 0.0913386,0.183465 0.137008,0.4 0.137008,0.649606 0,0.366929 -0.1,0.675591 -0.3,0.925197 -0.2,0.250394 -0.441732,0.374803 -0.724409,0.374803 -0.183465,0 -0.350394,-0.0291339 -0.5,-0.0874016 -0.150394,-0.0582677 -0.325197,-0.153543 -0.525197,-0.287402 -0.733858,-0.516535 -1.41654,-0.87874 -2.05039,-1.0874 -0.633071,-0.207874 -1.34961,-0.312598 -2.14961,-0.312598 -1.81654,0 -3.1874,0.537795 -4.1126,1.6126 -0.925197,1.0748 -1.3874,2.67087 -1.3874,4.7874 0,4.33386 1.9,6.5 5.7,6.5 1.13307,0 2.26614,-0.158268 3.4,-0.474803l0 -4.4252 -2.8252 0c-0.4,0 -0.712598,-0.1 -0.937795,-0.3 -0.224409,-0.2 -0.337008,-0.483465 -0.337008,-0.849606 0,-0.366929 0.112598,-0.650394 0.337008,-0.850394 0.225197,-0.2 0.537795,-0.3 0.937795,-0.3l4.4252 0zm12.7504 9.75039c-1.71732,0 -3.20472,-0.366929 -4.46299,-1.1 -1.25827,-0.733858 -2.22913,-1.78346 -2.9126,-3.15039 -0.683465,-1.36614 -1.02441,-2.96614 -1.02441,-4.8 0,-1.83307 0.337008,-3.42913 1.01181,-4.7874 0.675591,-1.35827 1.64646,-2.40394 2.9126,-3.1378 1.26693,-0.733071 2.75827,-1.1 4.47559,-1.1 1.71654,0 3.20394,0.366929 4.4622,1.1 1.25827,0.733858 2.2252,1.77953 2.9,3.1378 0.674803,1.35827 1.0126,2.95433 1.0126,4.7874 0,1.83386 -0.341732,3.43386 -1.0252,4.8 -0.683465,1.36693 -1.65433,2.41654 -2.9126,3.15039 -1.25827,0.733071 -2.73701,1.1 -4.43701,1.1zm0 -2.57559c1.61654,0 2.87874,-0.558268 3.7874,-1.6748 0.907874,-1.11654 1.3622,-2.71654 1.3622,-4.8 0,-2.08346 -0.454331,-3.67874 -1.3622,-4.7874 -0.908661,-1.10787 -2.17087,-1.6622 -3.7874,-1.6622 -1.63386,0 -2.90472,0.554331 -3.8126,1.6622 -0.908661,1.10866 -1.36299,2.70394 -1.36299,4.7874 0,2.08346 0.454331,3.68346 1.36299,4.8 0.907874,1.11654 2.17874,1.6748 3.8126,1.6748zm33.7244 -14.4244c0.116535,-0.333858 0.303937,-0.583465 0.562205,-0.750394 0.258268,-0.166142 0.546457,-0.249606 0.862992,-0.249606 0.4,0 0.745669,0.124409 1.03701,0.374803 0.292126,0.249606 0.437795,0.583465 0.437795,1 0,0.149606 -0.0417323,0.366929 -0.125197,0.649606l-5.3748 14.8756c-0.133071,0.333071 -0.354331,0.591339 -0.662205,0.774803 -0.308661,0.183465 -0.646457,0.274803 -1.0126,0.274803 -0.366929,0 -0.708661,-0.0913386 -1.0252,-0.274803 -0.316535,-0.183465 -0.533071,-0.441732 -0.649606,-0.774803l-4.15039 -11.7756 -4.2252 11.7756c-0.133071,0.333071 -0.354331,0.591339 -0.662205,0.774803 -0.308661,0.183465 -0.645669,0.274803 -1.0126,0.274803 -0.366929,0 -0.703937,-0.0913386 -1.0126,-0.274803 -0.307874,-0.183465 -0.520472,-0.441732 -0.637008,-0.774803l-5.37559 -14.8756c-0.0834646,-0.249606 -0.124409,-0.466142 -0.124409,-0.649606 0,-0.416535 0.153543,-0.750394 0.462205,-1 0.307874,-0.250394 0.670866,-0.374803 1.0874,-0.374803 0.333071,0 0.633071,0.0834646 0.9,0.249606 0.266929,0.166929 0.458268,0.416535 0.574803,0.750394l4.25039 12.2244 4.3748 -12.1496c0.116535,-0.333071 0.308661,-0.596063 0.574803,-0.787402 0.266929,-0.192126 0.558268,-0.287402 0.875591,-0.287402 0.316535,0 0.611811,0.0952756 0.887402,0.287402 0.274803,0.191339 0.470866,0.462205 0.587402,0.812598l4.24961 12.2748 4.3252 -12.3748zm7.20079 16.7748c-0.483465,0 -0.862992,-0.133071 -1.1378,-0.4 -0.274803,-0.266929 -0.412598,-0.641732 -0.412598,-1.1252l0 -14.5748c0,-0.483465 0.137795,-0.858268 0.412598,-1.1252 0.274803,-0.266142 0.654331,-0.4 1.1378,-0.4l9.02441 0c0.483465,0 0.858268,0.108661 1.1252,0.325197 0.266929,0.216535 0.4,0.525197 0.4,0.925197 0,0.416535 -0.133071,0.737008 -0.4,0.962205 -0.266929,0.225197 -0.641732,0.337795 -1.1252,0.337795l-7.42441 0 0 4.84961 6.92441 0c0.483465,0 0.858268,0.108661 1.1252,0.325197 0.266929,0.216535 0.4,0.533071 0.4,0.949606 0,0.4 -0.133071,0.708661 -0.4,0.925197 -0.266929,0.216535 -0.641732,0.325197 -1.1252,0.325197l-6.92441 0 0 5.14961 7.42441 0c0.483465,0 0.858268,0.112598 1.1252,0.337795 0.266929,0.225197 0.4,0.545669 0.4,0.962205 0,0.4 -0.133071,0.708661 -0.4,0.925197 -0.266929,0.216535 -0.641732,0.325197 -1.1252,0.325197l-9.02441 0z"/>
 </g>
</svg>
