<svg id="Warstwa_1" data-name="Warstwa 1" xmlns="http://www.w3.org/2000/svg" viewBox="0 0 151.59 64.86"><defs><style>.cls-1{fill:#c00418;}</style></defs><title>bip</title><polygon class="cls-1" points="0 13.6 35.34 49.48 35.34 13.6 0 13.6"/><path class="cls-1" d="M132,14.89a19.44,19.44,0,0,0-19.43,19.42V61.43a4.75,4.75,0,0,0,9.49,0V50.91a19.39,19.39,0,1,0,9.94-36m0,29.35a9.93,9.93,0,1,1,9.93-9.93A9.94,9.94,0,0,1,132,44.24M68.43,14.91a19.19,19.19,0,0,0-9.94,2.83V6.05a4.74,4.74,0,0,0-9.48,0V34.37A19.42,19.42,0,1,0,68.43,14.91m0,29.36a9.94,9.94,0,1,1,9.94-9.93,10,10,0,0,1-9.94,9.93m36.5.48c-.64-.32-2.58-1.3-2.58-8.84V19.69a4.74,4.74,0,1,0-9.48,0V35.91c0,5.75.81,13.79,7.79,17.32a4.75,4.75,0,1,0,4.27-8.48m-7.32-33A5.22,5.22,0,1,0,92.4,6.55a5.22,5.22,0,0,0,5.21,5.21" /></svg>