<svg version="1.2" xmlns="http://www.w3.org/2000/svg" viewBox="0 0 93 100" width="93" height="100">
	<title>logo_psoni_2-svg</title>
	<style>
		.s0 { fill: #000000 } 
		.s1 { fill: #3c61ab } 
	</style>
	<g id="Warstwa_x0020_1">
		<path id="_255923664" fill-rule="evenodd" class="s0" d="m43.2 6l2.3 2.3 3.9-2.7-1 4.4 5.4-1.1-4.7 3.2 4 1.7-4.4 0.9 4.6 2.8-5.9-0.7 2.2 5-5.6-3.4-0.8 3v-4.8c2 0 3.7-1.6 3.7-3.6 0-2-1.7-3.7-3.7-3.7q0 0 0 0 0 0 0 0v-3.2q0-0.1 0-0.1zm0 15.4v-4.8q0 0 0 0c-2 0-3.6-1.6-3.6-3.6 0-2 1.6-3.7 3.6-3.7 0 0 0-2.7 0-3.2v-0.1l-0.9-1-0.1 3-5.8-1.5 2.6 3.3-3.5 1 2.7 2.2-4.1 4.3 3.8-0.8-2.8 7.3 5.6-5.9 1.4 7.7 1.1-4.2z"/>
		<path id="_255923640" class="s0" d="m47.2 57.1l0.4 4.2c0.3 0.6 0.5 1.3 1.5 1.5l0.8 0.3v0.6h-4l-0.1-0.7-0.3-0.3-0.2-1.3-0.2-3.7-0.1-0.8-0.4-0.6-0.4-0.1-0.3 0.9v5.3l0.5 0.5 1 0.2 0.1 0.7h-4v-2.3-16.1l-0.4-0.8-0.9-1-1.6-2-0.5-1.2-0.7-2.5-0.9-2.5-0.6-2.1-0.1-1.7 0.4-1.6h0.4v0.5l-0.2 0.2-0.1 0.3 0.1 0.7 0.3 0.3 0.3-0.3v-0.3h0.5l-0.1 1.2c0.2 1.1 0.5 2.2 0.8 3.3 0.2 0.6 0.5 1.1 0.9 1.6l0.8 1.3 0.6 0.7 1 0.7 0.4 0.2 0.4-0.2 0.3-0.1v-0.8l-0.5-0.5-0.6-0.6-0.2-1.2v-0.9l0.1-0.9 0.3-0.5 0.7-0.5 0.6-0.3 0.8-0.2h0.8l0.9 0.3 1 0.6 0.5 0.9 0.2 1.9-0.6 1.3-0.4 0.1v0.4l0.1 1 0.2 0.1 1.1-0.1 0.8-0.8 0.6-1 0.7-1.3 1.2-2.7v-1.4l-0.2-0.5-0.1-0.8h0.4l0.2 0.6 0.3 0.3 0.4-0.4-0.1-0.8v-0.4l-0.4-0.2v-0.5l0.4-0.1 0.4 0.3 0.4 0.5-0.1 1.8-0.1 0.8-0.3 1-0.3 1.9-0.6 1.9-0.6 1.8-0.8 1.1-1.3 1.5-0.8 1.2-0.5 0.4c0 0 0 12.7 0 12.7z"/>
		<path id="_255923520" class="s0" d="m23.5 12l6.9-6.2 7.4 55.4-9.2 2.6h-3.3l-1.9-11z"/>
		<path id="_255923208" class="s0" d="m66.3 63.9l-9.6-3.4v-56.8l9.7 11.1z"/>
		<path id="_255923400" fill-rule="evenodd" class="s0" d="m44.8 1.8h24.6v63.8h-24.6v-2h21.1v-59.6h-21.1zm-24.6 0v63.8h24.6v-2h-21.1v-59.6h21.1v-2.2z"/>
		<path id="_255922872" fill-rule="evenodd" class="s0" d="m26.6 88.4l0.2-0.9c0-0.1 0-0.4 0.1-0.7q0.1-0.3 0.1-0.5l0.1-0.2v-0.1q0.2-0.2 0.4-0.1 0.1 0.1 0.3 0.4 0.1 0.2 0.1 0.3v0.4l-0.1 0.6-0.2 1.4q0.9-0.7 1.9-1.4 1-0.6 1.1-0.6 0.2 0.2 0.4 0.4 0.2 0.2 0 0.4l-0.1 0.1c-0.1 0.1-0.3 0.3-0.8 0.6l-1.1 0.9-0.7 0.4-0.3 0.3q-0.2 0.1-0.4 0.3-0.2 0.1-0.3 0.3l-0.7 1.1zm0-3.8q0.2 0.3 0.4 0.6 0.2 0.4 0 0.7l-0.4 0.5-0.5 0.6v-2.5l0.1-0.1c0.1 0 0.1 0 0.3 0.1q0 0.1 0.1 0.1zm-0.5 7.9v-2.2l0.1-0.1q0.1-0.2 0.1-0.3l0.2-1 0.1-0.5v3.3l-0.1 0.1zm-0.5-1.4l0.1-0.2 0.1-0.1 0.1-0.1q0 0 0-0.1l0.2-0.2v-0.1 2.2l-0.1 0.2c-0.1 0.1-0.2 0.1-0.4 0-0.1 0-0.1 0-0.1 0q0 0-0.2-0.1l-0.1-0.2c0 0-0.1 0-0.1-0.1-0.1-0.1 0.1-0.5 0.4-1 0 0 0.1-0.2 0.1-0.2zm0-6.2l0.2-0.1 0.3-0.3v2.5l-0.5 0.6-1.4 1.6-0.2 0.2-0.2 0.4-0.4 0.6q-0.3 0.3-0.5 0.4-0.1 0.1-0.3-0.1 0 0-0.2-0.2l-0.1-0.1q0-0.1-0.1-0.2 0 0 0-0.2c0-0.1 0.1-0.2 0.2-0.3l0.4-0.4 0.8-1 0.8-1q0.6-0.7 0.6-0.8l-0.4 0.3-0.6 0.5-0.5 0.4-0.5 0.4c-0.2 0.2-0.4 0.3-0.7 0.4-0.2 0.2-0.3 0.2-0.4 0.1q-0.4-0.5-0.3-0.9 0.2-0.3 0.4-0.7l0.4-0.8 0.4-0.6q0.2-0.4 0.1-0.4 0-0.1-0.9 1l-0.7 0.8-1.2 1.5q0 0.1-0.2 0-0.2-0.1-0.2-0.2v-0.9l1.6-2 1.5-1.7 0.1-0.2 0.1-0.2 0.3-0.3q0.1-0.1 0.2-0.2 0.1 0 0.3 0.1h0.1v0.1q0.5 0.4 0.6 0.7 0.1 0.3-0.1 0.6c-0.2 0.4-0.5 0.8-0.8 1.4q-0.4 0.9-0.4 1h0.1l0.1-0.1 0.3-0.2 0.5-0.4c0.1-0.1 0.4-0.4 0.9-0.8 0 0 0.5-0.3 0.5-0.3zm-4.3-2.9q0 0 0 0 0.1-0.1 0-0.2c0 0 0 0 0 0q-1.1-1.2-1.1-1.2c0.2-0.4 0.3-0.6 0.5-0.7q0.1-0.1 0.2-0.1 0 0.1 0.2 0.2l0.2 0.2 0.3 0.3 0.2 0.3 0.9 0.7q0.1 0.2 0.2 0.4c0.1 0.1 0.1 0.2 0.1 0.4 0 0.1-0.1 0.2-0.2 0.4q-0.1 0.1-0.6 0.2l-0.6 0.2h-0.3l-0.5 0.1c-0.5 0.2-0.8 0.2-1 0.3 0 0-0.1 0-0.1 0.1v-1.2h0.3l1-0.3c0.2 0 0.3-0.1 0.3-0.1zm-4.4 3.3l-1-0.9q-0.2-0.1-0.1-0.4 0.1-0.3 0.4-0.5c0.1-0.1 0.3-0.2 0.4-0.3q0.1 0 0.3-0.1c0 0 0 2.2 0 2.2zm0-2.2v2.3-0.1-2.2q0 0 0 0zm0-3.6v1.1c-0.2 0-0.4 0-0.5-0.1q0 0-0.1 0c0 0.1-0.1 0.2-0.1 0.3l-0.2 0.7-0.2 0.5-0.1 0.4q-0.1 0.4-0.3 0.7l-0.1 0.1c-0.1 0-0.2 0.1-0.3 0q-0.1 0-0.3-0.2-0.3-0.4-0.1-0.8 0.1-0.3 0.2-0.7c0.1-0.3 0.2-0.7 0.3-0.9 0-0.4 0.1-0.7 0.2-1l-1.9 1.5q-0.3 0.1-0.4 0.1v-1.1l3.9-3.2v1.4h-0.1l-0.7 0.6q0 0.2 0.1 0.3 0.2 0.2 0.6 0.3h0.1zm-3.9 1.7c-0.1 0-0.1-0.1-0.1-0.1 0 0 0 0 0 0-0.1-0.2-0.2-0.3-0.2-0.5 0-0.1 0-0.3 0.1-0.3l0.1-0.2h0.1c0 0 0 1.1 0 1.1zm3.9-6.1v-0.8q0 0 0 0 0 0 0 0 0 0 0 0 0 0 0 0 0 0 0 0 0 0.1 0 0.1v0.7zm0-2v-0.2q0 0 0 0v0.1 0.1c0 0 0 0 0 0zm0-0.2q0-0.1 0.1-0.1l1.7-0.1c0.1-0.1 0.2 0 0.3 0.1 0 0.1 0 0.1 0.1 0.2 0 0.1 0 0.2-0.1 0.3q0 0.1-0.1 0.2c0 0-0.1 0-0.1 0l-1.7-0.2q-0.1 0-0.1-0.1-0.1 0-0.1-0.1v-0.1c0 0 0-0.1 0-0.1zm2.4 7.4c-0.1 0.1-0.2 0.1-0.3 0.2q-0.2 0.1-0.6 0.1c-0.1 0-0.2 0.1-0.4 0.1h-0.4c-0.2 0-0.4 0-0.7-0.1v-1.1q0.2 0 0.3 0 0.1 0 0.2 0h0.3q0.3 0 0.7-0.1 0.2-0.1 0.4-0.2c0.1-0.1 0.2-0.2 0.1-0.3 0-0.1-0.2-0.3-0.3-0.5q-0.1-0.2-0.2-0.3-0.2-0.1-0.2-0.2-0.2-0.1-0.4-0.1-0.1 0-0.4 0.2l-0.3 0.1-0.2 0.2v-1.4l0.1-0.1c0.4-0.3 0.6-0.5 0.8-0.5 0.2-0.1 0.3 0 0.4 0q0 0.1 0.1 0.2l0.1 0.2v0.1l0.1 0.1 0.1 0.1q0.2 0.1 0.4 0.2c0.1 0.1 0.2 0.2 0.3 0.3l0.2 0.3q0.1 0.1 0.1 0.1 0 0.1 0.1 0.2 0 0 0 0v1.6c0 0 0 0 0 0q0.1-0.2 0.1-0.4 0.1-0.2 0.1-0.4c0-0.3-0.1-0.6-0.2-0.8v1.6c-0.1 0.3-0.2 0.5-0.4 0.6zm0.4 3.3q-0.2 0.1-0.7 0.2l-1.1 0.3c-0.2 0.1-0.3 0.1-0.3 0.2-0.1 0-0.1 0 0 0 0.2 0.3 0.5 0.6 0.6 0.8q0.3 0.3 0.4 0.5c0.1 0.3 0 0.5-0.1 0.6l-0.1 0.1-0.1 0.1c-0.1 0-0.2 0.1-0.3 0q-0.2-0.1-0.5-0.5l-0.3-0.2-0.3-0.3v-2.3q0.8-0.2 1.6-0.4l0.5-0.1 0.5-0.1h0.2zm0 4.7q-0.1-0.2-0.1-0.3c-0.1-0.2-0.1-0.4 0.1-0.5v-0.1zm-2.8-14c0 0.1 0 0.8 0 0.8-0.3 0.9-0.9 1.6-1.9 2.2l-0.1 0.1-0.1 0.1h-0.1v0.1c-0.1 0-0.1 0-0.1 0l-0.3 0.1q-0.4 0.2-0.7 0.3-0.3 0.1-0.6 0.2h-0.1q-0.3 0-0.6 0.1-0.9 0.1-1.4-0.3c-0.1-0.1-0.3-0.3-0.3-0.4q-0.1-0.1-0.2-0.3c-0.1-0.2-0.1-0.3-0.1-0.4q0-0.4 0.1-1c0.1-0.2 0.3-0.5 0.5-0.8 0-0.1 0-0.1 0-0.1q0.3-0.4 0.8-0.8l0.3-0.2 0.3-0.2c0.2-0.1 0.4-0.2 0.7-0.3 0.1-0.1 0.3-0.1 0.4-0.2q0.6-0.3 1.2-0.4c0.4-0.1 0.8-0.1 1.2-0.1 0.3 0.1 0.6 0.3 0.8 0.5l0.1 0.1q0.1 0.1 0.1 0.5 0 0.2 0.1 0.4zm-3.9 2.5l0.6-0.3q0.6-0.2 1-0.5c0.2-0.1 0.4-0.3 0.8-0.5 0 0 0.1-0.1 0.1-0.1q0.1-0.1 0.2-0.2c0.1 0 0.1-0.2 0.2-0.3q0.3-0.4 0.1-0.6-0.2-0.4-1.4-0.1c-0.4 0.1-0.7 0.3-1 0.4-0.2 0-0.4 0.1-0.6 0.2-0.1 0.1-0.3 0.1-0.3 0.2q-0.1 0.1-0.2 0.1-0.1 0.1-0.2 0.2-0.4 0.2-0.7 0.5-0.2 0.2-0.3 0.4-0.3 0.3-0.1 0.6c0 0.1 0.2 0.2 0.4 0.2 0.2 0 0.5 0 0.7 0l0.7-0.2zm-0.1-5.3h0.1v1.1h-0.1zm0.1 0c0.5-0.2 0.9-0.2 1.1-0.2l0.6-0.1h0.4 0.3c0.1 0 0.2 0 0.3 0.1q0 0.1 0 0.1v0.6q-0.1 0.2-0.2 0.2c0 0-0.1 0.1-0.1 0.1h-0.2q-0.3 0-1.2 0.1-0.5 0-1 0.1v-1q0 0 0 0zm0-2.5q0.1-0.1 0.2-0.1 0.1 0 0.3 0.1c0.1 0.1 0.2 0.2 0.2 0.3l0.1 0.1q0.1 0.4 0.1 0.4 0 0.1-0.1 0.1c0 0.1-0.1 0.2-0.3 0.3q-0.2 0.1-0.5 0.3h-0.1q0 0-0.1 0l-0.9 0.6-0.6 0.3-0.4 0.2v-0.5-0.4q0.4-0.2 0.5-0.3 0.3-0.1 0.3-0.2h-0.1l-0.3 0.1h-0.4v-0.8l1-0.2q0.9-0.3 1-0.3zm-2.1 2.6c-0.1 0.1-0.2 0.2-0.2 0.2 0 0 0.1 0.1 0.2 0h0.3l0.5-0.1 0.9-0.2q0.2 0 0.4 0v1c-0.2 0.1-0.4 0.1-0.6 0.1-0.5 0.1-0.9 0.2-1.3 0.3h-0.2l-0.6 0.1-0.9 0.2h-0.2-0.1v-1.4c0.1-0.1 0.3-0.2 0.4-0.3l1.1-0.6q0.2-0.1 0.3-0.2v0.4c0 0 0 0.5 0 0.5zm2.1-3.6v-0.6 0.6zm0 0l-0.2 0.1-0.4 0.2-0.3 0.1-0.6 0.3-0.5 0.2v-1.2l0.3-0.1 1.1-0.6 0.2-0.1h0.2c0.1-0.1 0.2-0.1 0.2-0.1zm0.1 0l-0.1-0.6v-0.5h0.1c0.1 0 0.2 0.1 0.2 0.2l0.1 0.1c0.1 0.4 0.1 0.6-0.2 0.8zm0-1.4q0 0 0 0v-2l0.1 0.4 0.3 0.6c0 0.3 0 0.5 0 0.7q-0.1 0.2-0.4 0.3zm0 0q-0.3 0.1-0.4 0-0.2-0.1-0.3-0.4l-0.2-0.4q0-0.2-0.1-0.3 0 0-0.1 0l-1 0.1v-1.1l0.6-0.2-0.1-0.3q0-0.2 0-0.3c0-0.1 0.1-0.2 0.2-0.3 0.1-0.1 0.2-0.2 0.4-0.3 0.1 0 0.3 0 0.4 0.1q0.2 0.2 0.3 0.5c0.1 0.2 0.1 0.4 0.2 0.6l0.1 0.3zm-2.1-4.6c0 0 0.1 0 0.1 0q0.2 0 0.4-0.2 0.4-0.2 0.4-0.5 0-0.3-0.9-0.6c-0.1 0-0.2-0.1-0.3-0.1-0.5-0.1-0.8-0.1-1.1-0.2q-0.3 0-0.5 0v-1.2c0.3-0.1 0.6 0 0.9 0q0.5 0 1 0.1 0.1 0 0.3 0.1c0.4 0.1 0.8 0.3 1 0.5 0.3 0.2 0.5 0.5 0.6 0.8v0.1c0 0.1-0.1 0.3-0.1 0.6-0.1 0.2-0.2 0.4-0.3 0.6q-0.1 0.4-0.2 0.5c-0.4 0.3-0.8 0.6-1.3 0.8q-0.6 0.2-1.4 0.3h-0.5v-1.4h0.7c0.2 0 0.5 0 0.9-0.1 0.1 0 0.2 0 0.2 0q0-0.1 0.1-0.1zm0.1-7.9l-0.1 0.1-1.9 2.6v-1.1l1.2-1.8 0.7 0.1zm-0.1 10.4v1.2l-1.9 0.3v-1.1zm-1.9 1.5l-2.7 0.5q-0.2 0.1-0.3-0.3c0-0.1 0-0.3 0-0.4 0.1-0.2 0.2-0.3 0.3-0.3l2.7-0.6v1.1zm1.9 1.8v1.2l-0.3 0.1-0.9 0.4c-0.3 0.1-0.4 0.3-0.4 0.3h0.2l0.7-0.1 0.7-0.2v0.9l-0.9 0.2-1 0.3v-2.2l0.9-0.4zm-1.9 4h0.1v1.5h-0.1-0.1c-0.2 0-0.3 0-0.3-0.1q-0.1-0.1-0.1-0.1v-0.6l0.1-0.2c0-0.1 0-0.2 0.1-0.2q0.1-0.1 0.3-0.3zm0-3.1h0.1v2.2h-0.1l-0.4 0.1q-0.6 0.1-1 0.1-0.1 0.1-0.2-0.1c0-0.2-0.1-0.5 0-0.8q0.1-0.5 0.4-0.8c0.2-0.1 0.5-0.3 1-0.5l0.2-0.2zm0-6.4h0.1v1.3h-0.1-0.3c-0.3 0-0.6 0-0.8-0.1-0.2 0-0.4-0.1-0.6-0.1q-0.3-0.1-0.6-0.2c-0.6-0.3-1.3-0.8-1.3-1.5 0-0.1 0-0.2 0-0.3q0.1-0.2 0.2-0.4c0.1-0.3 0.3-0.5 0.5-0.8q0.3-0.3 0.8-0.5c0.3-0.2 0.7-0.3 1.1-0.4l0.3-0.1h0.4 0.3 0.1v1.3h-0.1q-0.2-0.1-0.4-0.1-0.2 0.1-0.3 0.1c-0.1 0-0.2 0-0.3 0-0.3 0-0.5 0.1-0.8 0.1-0.2 0.1-0.4 0.2-0.5 0.2q-0.4 0.2-0.4 0.5 0 0.3 0.3 0.4 0.3 0.2 0.7 0.4l0.7 0.1 0.7 0.1q0.1 0 0.3 0zm0.1-6.6v1.2h-0.1l-0.8 1.3-0.7-0.2-1.1-4.8 0.8 0.2 0.8 3.8c0 0 1-1.5 1-1.5zm7.9 19.4v-0.7 0.2zm0-2.2v0.2-0.1zm-3.9-6v0.6m0-2.8v2-2.1zm-4 0.3v1.1"/>
		<path id="_255923136" fill-rule="evenodd" class="s0" d="m73.1 83.6l0.1 0.1 0.6 0.5q0.2 0.3 0.3 0.5c0.1 0.1 0.1 0.2 0 0.3 0 0-0.2 0.1-0.3 0.1l-0.1 0.1c-0.1 0.1-0.1 0.1-0.2 0.1q0 0-0.2 0-0.1 0-0.2-0.1l-0.5-0.5-0.6-0.6v-1.5l0.7 0.6 0.2 0.2c0 0 0.2 0.2 0.2 0.2zm1.9-2.2l0.2 0.1 0.2 0.2 0.5 0.3c0.2 0.2 0.3 0.3 0.3 0.4l-0.1 0.1c-0.2 0.1-0.3 0.3-0.6 0.3-0.2 0.1-0.4 0-0.6-0.1l-0.4-0.4-0.2-0.2-0.3-0.2-0.7-0.6-0.2-0.2-0.5-0.3-0.6-0.5-0.1-0.1-0.6-0.4-0.2-0.2-0.2-0.1v-1.5l0.2 0.2 0.9 0.7 1.1 0.9zm-4.1 6.5v-1.3l0.7 0.7c0.1 0 0 0.1-0.1 0.3q-0.2 0.2-0.6 0.3zm0-2.2v-2.1l0.2 0.3 0.3 0.4q0.3 0.4 0.4 0.8 0.2 0.3 0.1 0.5c-0.4 0.2-0.7 0.3-1 0.1zm0-4.2l1.1 1.1v1.5l-0.3-0.3-0.8-0.8zm0-3.5v1.5l-0.4-0.3-0.1-0.1-0.1-0.1c-0.2-0.1-0.3-0.3-0.4-0.4-0.1-0.1 0-0.3 0.1-0.4 0 0 0-0.1 0.1-0.2q0.4-0.3 0.8 0zm0 3.4v1.5l-0.2-0.1q-0.7-0.7-0.7-0.6l0.2 0.4 0.4 0.6 0.3 0.3v2.1q-0.3-0.1-0.7-0.4l-0.8-0.5-0.6-0.4q-0.4-0.3-0.4-0.2-0.1 0.1 0.9 1l1.6 1.5v1.2q-0.3 0-0.5-0.2l-2.7-2.6-0.8-0.9-0.2-0.1-0.2-0.2-0.2-0.2v-0.7q0.5-0.5 0.8-0.5 0.3-0.1 0.6 0.1c0 0.1 0 0.1 0 0.1 0.4 0.3 0.8 0.5 1.3 0.9 0.6 0.3 0.9 0.5 1 0.5v-0.1l-0.1-0.2-0.2-0.3-0.3-0.5c-0.2-0.1-0.4-0.5-0.7-1l-0.5-0.7-0.3-0.5q0-0.1 0.2-0.3c0.1-0.2 0.4-0.3 0.7-0.5q0.5-0.1 0.7 0.1c0 0 1.4 1.4 1.4 1.4zm-2.6 6.7l0.2 0.2 0.2 0.2 0.4 0.5q0.2 0.3 0.1 0.4l-0.1 0.1c-0.1 0.1-0.4 0.2-0.6 0.2q-0.4 0-0.6-0.3l-0.2-0.2-0.1-0.2-0.2-0.3-0.1-0.3-0.6-0.7-0.4-0.5v-1.8l1.4 2zm-3.6 2.7l-0.9-0.5-0.4-0.3-0.4-0.2-0.3-0.3q-0.3-0.1-0.4-0.1c0 0 0 0.1 0.1 0.2l0.1 0.1 1.8 2.7q0.2 0.3-0.1 0.5-0.3 0.1-0.6 0.1-0.3 0-0.4-0.2l-3.2-5.1q-0.1-0.1 0-0.3 0.1-0.1 0.2-0.2 0.2-0.2 0.5-0.1c0.2 0 0.3 0 0.4 0.1q0.2 0.1 1 0.7l1.2 0.9 0.8 0.5q0.1 0.1 0.2 0.1c0 0 0-0.1-0.2-0.4l-0.2-0.2-0.2-0.2-0.1-0.3-1.6-2.5c-0.1-0.2 0-0.3 0.2-0.4q0.2-0.2 0.4-0.2 0.3 0 0.4 0.1l1.7 2.6 0.6 1v2.3zm0-5.8l-0.2-0.2-0.1-0.1v-0.1c-0.2-0.1-0.2-0.3-0.3-0.4 0-0.2 0-0.3 0.1-0.4 0.1 0 0.1-0.1 0.3-0.1 0-0.1 0.1-0.1 0.2-0.1q0.3 0 0.5 0.2v0.1l0.1 0.1v1.8l-0.2-0.2-0.1-0.2-0.2-0.2zm1.7 5.4l0.2 0.4q0 0-0.1 0.2l-0.1 0.1c0 0 0 0 0 0zm0 0v0.8q0 0-0.1 0c0 0.1 0 0.1 0 0.1q-0.4 0.2-0.7 0.1l-0.2-0.2v-2.3zm0-6.9l-0.1-0.1c-0.1 0-0.1-0.1-0.1-0.2q-0.1-0.1 0-0.3h0.1l0.1-0.1zm0 3.6l-0.1-0.2-0.6-0.7-0.3-0.4v-1.8l1 1.3z"/>
		<path id="_255923328" fill-rule="evenodd" class="s0" d="m80.1 75.2c0 0 0.1 0 0.2 0 0.2 0.1 0.3 0.2 0.3 0.5q-0.1 0.2-0.3 0.7l-0.1 0.3-0.1 0.2-0.1 0.2-0.6 1.3c-0.1 0.1-0.2 0.1-0.4 0.1-0.1 0-0.2 0-0.3 0-0.1 0-0.2-0.1-0.3-0.1q-0.3-0.2-0.4-0.4-0.1-0.1-0.2-0.2-0.4-0.6-0.7-1.1c-0.1-0.1-0.1-0.2-0.2-0.3l-0.3-0.5-0.3-0.5-0.2-0.4-0.5-0.8q-0.2-0.3-0.3-0.3-0.1-0.1-0.2 0.1-0.7 1.4-0.8 1.4-0.6-0.1-0.8-0.2c-0.1-0.1-0.1-0.1-0.1-0.2q-0.1-0.1 0-0.3l0.2-0.3 0.2-0.3 0.2-0.3 0.5-1.1c0.1-0.2 0.1-0.3 0.2-0.4q0.2-0.1 0.3-0.1 0.3-0.1 0.5 0 0.1 0 0.4 0.5l0.4 0.6 0.4 0.6c0.2 0.3 0.3 0.5 0.4 0.7 0.1 0.1 0.1 0.1 0.1 0.2q0.1 0.2 0.6 0.8l0.6 0.9q0.2 0.2 0.3 0.3c0.2-0.4 0.4-0.7 0.6-0.9q0.2-0.3 0.4-0.5 0.2-0.2 0.4-0.2zm0-4.5l1 0.6 1 0.5c0.2 0.1 0.3 0.2 0.2 0.4q-0.1 0.1-0.1 0.2l-0.1 0.2c0 0-0.1 0-0.2 0.1q-0.2 0.1-1.1-0.3h-0.2l-0.1-0.1-0.2-0.1h-0.1c0 0-0.1 0-0.1-0.1l-0.2-0.1-0.3-0.1c-0.1 0-0.2 0-0.3 0l-0.6-0.1h-0.5-0.4-0.7-0.4c-0.1 0-0.3 0-0.6-0.1-0.3 0-0.5 0-0.6 0h-0.1l-0.2-0.1q-0.2-0.1-0.1-0.3 0-0.2 0.2-0.4c0.2-0.1 0.3-0.2 0.4-0.2h0.4 0.6 0.4 0.7 0.3q-0.1-0.2-0.3-0.3c-0.2-0.3-0.5-0.5-0.7-0.8-0.2-0.2-0.4-0.4-0.7-0.6q-0.7-0.9-0.7-1.1c0-0.1 0.1-0.2 0.2-0.4q0.2-0.2 0.5-0.1l0.1 0.1c0.2 0.1 0.3 0.2 0.6 0.5q0.1 0.1 0.2 0.2l0.5 0.6 0.5 0.4 0.4 0.4 0.1 0.2 0.4 0.3q0.1 0.2 0.4 0.4c0.1 0 0.2 0.1 0.3 0.2h0.2zm0-3.3c0.2 0 0.5 0.1 0.7 0.2l0.4 0.1 0.3 0.1h0.3c0.2 0 0.2 0.1 0.2 0.1h0.2q0.6 0 0.7-0.3 0-0.3-0.2-0.5c-0.2-0.2-0.5-0.3-0.8-0.5-0.3-0.2-0.6-0.3-0.7-0.5q-0.2-0.2-0.2-0.5 0.2-0.5 1-0.3 0.2 0.1 0.4 0.2c0.1 0 0.2 0.1 0.4 0.2q0.2 0.1 0.3 0.2c0.3 0.3 0.4 0.6 0.5 0.9 0.2 0.3 0.2 0.7 0.1 1q-0.1 0.3-0.2 0.5-0.2 0.2-0.5 0.4c-0.3 0.2-0.7 0.4-1.2 0.3q-0.7 0-1.6-0.2c0 0-0.1 0-0.1 0q-0.6-0.2-1.2-0.5c0 0-0.1 0-0.2-0.1-0.3-0.1-0.6-0.3-0.9-0.4q0 0 0 0v-1.5q0 0 0 0v1.5c-0.2-0.2-0.5-0.4-0.7-0.6q-0.1-0.1-0.2-0.2c-0.5-0.3-0.6-0.7-0.5-1.2q0.1-0.3 0.4-0.6 0.1-0.2 0.3-0.3c0.1 0 0.2-0.1 0.4-0.2 0.1 0 0.2-0.1 0.3-0.1v1.3q-0.3 0-0.3 0.1v0.1c0.1 0 0.2 0.1 0.3 0.2q0.2 0.1 0.4 0.2c0.1 0.1 0.3 0.2 0.5 0.3 0.1 0.1 0.2 0.1 0.3 0.2q0.5 0.2 1.1 0.4zm0-4.6l3 0.6h0.2l0.3 0.1 0.6 0.1q0.4 0 0.4 0.2l-0.1 0.1q0 0.3-0.3 0.6-0.3 0.2-0.6 0.2l-0.5-0.2h-0.4l-0.2-0.1-1-0.2-0.8-0.1-0.6-0.1-0.4-0.1-0.7-0.1h-0.3v-0.1h-0.2l-0.5-0.1h-0.1-0.1v-1.2l0.1 0.1h0.2l0.6 0.1 1.4 0.2zm0-2.1q0.1-0.1 0.1-0.1 0.2 0 0.2-0.3v-0.9q0.1-0.5 0.4-0.4h0.2c0 0 0 0 0 0h0.2q0.4 0.1 0.3 1.1v0.1 0.2c0 0.3 0.2 0.5 0.7 0.6h0.3c0.1 0 0.2 0 0.2 0h0.3l0.3-0.1c0.1 0 0.1-0.1 0.1-0.1v-0.3-0.2c0-0.2 0-0.4 0-0.6 0-0.2 0.1-0.3 0.2-0.4 0.4-0.1 0.6-0.1 0.7-0.1q0.1 0 0.2 0.1 0 0 0.1 0.2v0.5c0.1 0.5 0.1 0.9 0.1 1.2q-0.1 1-0.9 0.9l-2.1-0.1-1-0.1-0.6-0.1h-0.1l-1.1-0.1h-0.2v-1.4c0 0 0 0.1 0.1 0.1q0.1 0.2 0.7 0.2 0.3 0.1 0.6 0.1zm0-7.3l1.4 3.1 1.5-3.6 0.8-0.1-1.9 4.7h-0.7l-1.1-2.5-1-2.1h0.7l0.3 0.5zm-1.1 11.5h0.3c0.1 0.1 0.2 0.1 0.3 0.2q0 0.1 0 0.3c-0.1 0.1-0.2 0.3-0.4 0.4q-0.2 0.2-0.5 0.1c-0.1 0-0.1 0-0.2 0-0.1 0-0.3-0.1-0.6 0 0 0-0.1 0-0.1 0v-1.3h0.2l0.3 0.1 0.3 0.1h0.1zm-0.3-5.7v0.5 0.1 0.2q-0.1 0.1-0.1 0.1c0.1 0 0.1 0.1 0.1 0.1 0 0 0 0 0 0.1v1.4l-0.5-0.1c-0.2 0-0.3 0-0.4 0-0.1-0.1-0.1-0.1-0.2-0.1q-0.1-0.1-0.1-0.3c0-0.1 0-0.1 0-0.1v-0.3c0-0.1 0.1-0.1 0.1-0.2v-0.5c0-0.2-0.1-0.4-0.1-0.7v-0.1q0-0.1 0.1-0.3c0.1 0 0.1-0.1 0.2-0.1 0 0 0.1 0 0.1-0.1 0.1 0 0.2 0 0.3 0q0.2 0 0.4 0.2c0.1 0 0.1 0.1 0.1 0.2zm-0.9 4.4q-0.3-0.1-0.5-0.2-0.2-0.1-0.2-0.4 0 0 0.1-0.2 0.2-0.4 0.6-0.4zm0-2v-2.7c0 0 0 2.7 0 2.7zm-5.9 11.2c0-0.2 0-0.3 0-0.4l0.1-0.2q0.1 0 0.1-0.1 0.1 0 0.3 0c0.1 0 0.2 0 0.3 0l0.2 0.1q0.3 0.2 0.4 0.4 0.1 0.2 0 0.4-0.1 0.2-0.4 0.2-0.3 0.1-0.6-0.1c-0.2-0.1-0.3-0.2-0.4-0.3zm6.8-13.1v-0.5 0.3z"/>
		<path id="_255923040" fill-rule="evenodd" class="s0" d="m54.9 96.4h-0.3-0.1c-0.2 0-0.4-0.1-0.6-0.2q-0.2-0.1-0.2-0.2l-1-6.3q0-0.3 0.1-0.4c0.1-0.1 0.3-0.1 0.5-0.1l0.2-0.1h0.1q0.4-0.1 0.6 0c0.1 0 0.3 0 0.5 0.1 0.1 0 0.1 0 0.2 0q0 0 0 0v1.2c-0.1 0-0.2-0.1-0.3-0.1-0.1 0-0.2-0.1-0.3 0q-0.3 0-0.2 0.4l0.6 4c0.1 0.2 0.1 0.4 0.2 0.4zm0-1.3c0.1 0 0.1-0.1 0.2-0.3l0.2-0.5q0.1-0.2 0.2-0.6 0.1-0.3 0.1-0.8v-0.4c0-0.2 0-0.3 0-0.5q-0.1-0.7-0.5-1.2-0.1-0.2-0.2-0.3v-0.1q0 0 0 0v-1.2q0.3 0.1 0.6 0.3 0.4 0.3 0.7 0.8 0.3 0.3 0.5 0.7c0 0.1 0.1 0.3 0.1 0.4q0 0.2 0.1 0.5c0.1 0.5 0.1 1.1 0 1.6q-0.2 0.9-0.6 1.6c-0.3 0.5-0.6 0.9-1 1.2-0.1 0-0.2 0.1-0.3 0.1h-0.1v-1.3zm-11.3 1.1v-0.7q0-0.1 0.1-0.2 0.6-1 1.1-1.7l0.3-0.5 0.3-0.4 0.2-0.5 0.6-0.8c0.1-0.2 0.2-0.3 0.2-0.4 0 0-0.1-0.1-0.3-0.1q-1.5 0-1.5-0.1c-0.2-0.4-0.2-0.7-0.2-0.9q0-0.1 0.1-0.2 0.1 0 0.3 0h0.3 0.4l0.4 0.1 1.1-0.1c0.2 0 0.4 0.1 0.5 0.1q0.2 0.1 0.3 0.2 0.1 0.2 0.1 0.5 0 0.1-0.2 0.6l-0.4 0.5-0.4 0.7q-0.5 0.7-0.6 0.9c0 0.1-0.2 0.4-0.5 0.8l-0.5 1c-0.1 0.1-0.1 0.3-0.1 0.4q0 0 0 0 0.7 0 1 0.1c0.3 0 0.5 0.1 0.6 0.2q0.4 0.1 0.4 0.4v0.1 0.1c0 0.2-0.1 0.2-0.2 0.3q-0.2 0-0.7 0h-0.4-0.4-1.5q-0.2 0-0.3-0.2 0-0.1-0.1-0.2zm11.2 0.2q0 0 0 0zm-6.1-5.9c0-0.3 0-0.5 0-0.6 0-0.1 0.2-0.2 0.3-0.2q0.1 0 0.2 0h0.1 0.5q0.1 0 0.3-0.1c0.2 0 0.4 0 0.6-0.1h0.1c0.2 0 0.3 0 0.3 0q0.2 0.2 0.3 0.3c0.1 0.1 0.1 0.2 0.1 0.4q0 0.2-0.1 0.3-0.2 0.2-0.5 0.2h-0.4-0.2q-0.1 0.1-0.2 0.1-0.1 0-0.2 0.1-0.1 0.2-0.1 0.7 0 0.5 0.1 0.7c0.1 0.2 0.2 0.2 0.4 0.2h0.2l0.2-0.1q0.3 0 0.5 0c0.3-0.1 0.5 0.1 0.5 0.3v0.3 0.2q0 0.4-1 0.4h-0.2-0.2q-0.5 0-0.4 0.7v0.2 0.2 0.2l0.1 0.2 0.1 0.4q0 0.1 0.1 0.1h0.2l0.1-0.1h0.2q0.3-0.1 0.5-0.1 0.4-0.1 0.5 0.2c0.2 0.3 0.2 0.5 0.2 0.6 0 0.1 0 0.2 0 0.2q-0.1 0.1-0.2 0.1l-0.5 0.2q-0.8 0.2-1.2 0.2-1 0-1.1-0.8l-0.1-2.1-0.1-1v-0.7-1.1zm-5.1 0.4v0.5c0 0 0 0 0 0 0 0.1 0 0.1 0 0.2q-0.1 0.3-0.4 0.6-0.1 0.1-0.2 0.3c-0.1 0.1-0.2 0.2-0.3 0.3-0.1 0.1-0.3 0.3-0.5 0.4-0.2 0.1-0.3 0.2-0.5 0.3 0 0 0 0 0 0.1 0 0.1 0 0.2 0 0.3l0.4 0.7 0.2 0.4 0.2 0.4c0.1 0.2 0.2 0.4 0.3 0.7v0.1c0 0.1-0.1 0.2-0.2 0.2-0.1 0.1-0.2 0.1-0.3 0.1q-0.5 0-0.7-0.5-0.1-0.1-0.2-0.3v-3.4c0.1 0 0.1-0.1 0.2-0.1q0-0.1 0.2-0.1c0-0.1 0.1-0.1 0.1-0.2 0.2-0.2 0.3-0.4 0.4-0.6 0.1-0.2 0.2-0.3 0.2-0.4q0-0.3-0.1-0.3c-0.2-0.1-0.4-0.2-0.6-0.2h-0.4v-1.2c0.1 0 0.2 0.1 0.3 0.1h0.3q0.1 0 0.2 0.1 0 0 0.2 0c0.2 0.1 0.4 0.3 0.6 0.5q0.2 0.1 0.3 0.3 0.1 0.2 0.2 0.4 0.1 0.1 0.1 0.3 0 0 0 0zm0 4.7c0 0 0 0 0 0v0.5c0 0 0 0 0 0zm-6.7-7.3c0.1 0 0.1 0 0.2 0q0 0.1 0.1 0 0 0 0.2 0.1c0.2 0.1 0.4 0.2 0.4 0.2q0.7 0.5 0.9 1.1c0.1 0.4 0.1 0.7 0.1 1l-0.1 0.2v0.1 0.1q-0.1 0.4-0.2 0.6c-0.1 0.2-0.3 0.4-0.4 0.5-0.2 0.2-0.5 0.4-0.9 0.5l-0.3 0.1v-1.1q0.2-0.2 0.4-0.6 0.2-0.3 0.3-0.6 0.1-0.4-0.1-0.7c-0.1-0.2-0.3-0.3-0.5-0.4h-0.1zm4.5 2.1h-0.3q-0.2 0-0.3 0.1-0.1 0.1-0.2 0.4l-0.1 0.3v0.4l-0.1 0.9q0.1 0.1 0.2 0.1 0.3 0.1 0.6-0.2 0.2 0 0.2-0.1v3.4c0-0.1-0.1-0.2-0.2-0.4-0.1-0.3-0.3-0.6-0.4-0.8-0.2-0.3-0.4-0.6-0.6-0.9l-0.3 2.4c-0.1 0.3-0.2 0.4-0.4 0.4-0.1-0.1-0.3-0.1-0.4-0.2q-0.2-0.2-0.2-0.3l0.6-5.6q0.1-0.7 0.2-0.9 0.1-0.2 0.3-0.2c0 0 0.1 0 0.2 0.1h0.2l0.1 0.1h0.1l0.2-0.1q0.2 0 0.4-0.1h0.2zm-5.7-1.8q0.1-0.2 0.3-0.3c0.3 0 0.5 0 0.7 0q0.1 0.1 0.2 0.1v1.1h-0.2l-0.5 2.3q0.1 0.1 0.2 0.2c0.1 0 0.3-0.1 0.5-0.2v1.1l-0.5 0.1q-0.4 0.1-0.4 0.3l-0.1 0.3-0.2 0.7-0.2 0.8v0.2q0 0.5-0.4 0.4-0.3-0.1-0.5-0.3c-0.1-0.2-0.2-0.4-0.1-0.6zm7.9 2.8v-0.2m0 4.4v0.7-0.1-0.5zm0-4.4v0.2 0.1-0.5zm-0.1 4.6v0.2 0.2z"/>
		<g id="_261317248">
			<path id="_257563224" fill-rule="evenodd" class="s1" d="m135.2 28.9q-0.8 0-1.2-0.5-0.4-0.4-0.4-1.2v-14.6q0-0.7 0.4-1.1 0.4-0.4 1.1-0.4h6.2q2.8 0 4.4 1.4 1.5 1.4 1.5 4 0 2.5-1.5 3.9-1.6 1.5-4.4 1.5h-4.5v5.3q0 0.8-0.4 1.2-0.5 0.5-1.2 0.5zm5.7-9.5q3.3 0 3.3-2.9 0-2.9-3.3-2.9h-4.1v5.8zm17 9.5q-2.5 0-4.4-1.1-1.9-1.1-2.9-3.1-1.1-2.1-1.1-4.8 0-2.8 1.1-4.8 1-2 2.9-3.1 1.9-1.1 4.4-1.1 2.6 0 4.5 1.1 1.9 1.1 2.9 3.1 1 2 1 4.8 0 2.7-1 4.8-1 2-2.9 3.1-1.9 1.1-4.5 1.1zm0-2.5q2.5 0 3.8-1.7 1.4-1.7 1.4-4.8 0-3.1-1.4-4.8-1.3-1.7-3.8-1.7-2.4 0-3.8 1.7-1.3 1.7-1.3 4.8 0 3.1 1.3 4.8 1.4 1.7 3.8 1.7zm13.2 2.3q-0.7 0-1.1-0.4-0.4-0.4-0.4-1.1v-14.6q0-0.8 0.4-1.2 0.4-0.4 1.2-0.4 0.7 0 1.2 0.4 0.4 0.4 0.4 1.2v13.5h7q1.5 0 1.5 1.3 0 1.3-1.5 1.3c0 0-8.7 0-8.7 0zm18.4 0.2q-1.9 0-3.6-0.5-1.7-0.5-2.8-1.4-0.6-0.4-0.6-1.2 0-0.5 0.4-0.9 0.3-0.4 0.7-0.4 0.4 0 1 0.4 1.1 0.8 2.3 1.1 1.1 0.4 2.6 0.4 1.8 0 2.8-0.7 0.9-0.6 0.9-1.8 0-1-0.9-1.5-0.9-0.5-3-1-2.2-0.5-3.6-1.1-1.4-0.6-2.1-1.6-0.7-1-0.7-2.5 0-1.5 0.9-2.7 0.9-1.3 2.5-2 1.5-0.6 3.5-0.6 3.5 0 5.8 1.9 0.3 0.2 0.5 0.5 0.1 0.3 0.1 0.7 0 0.5-0.3 0.9-0.3 0.4-0.8 0.4-0.2 0-0.4-0.1-0.2-0.1-0.6-0.3-1-0.7-2-1.1-0.9-0.4-2.3-0.4-1.7 0-2.7 0.7-1 0.7-1 1.9 0 1.1 0.9 1.6 0.8 0.6 2.9 1 2.3 0.5 3.7 1.1 1.3 0.7 2.1 1.6 0.7 1 0.7 2.4 0 1.5-0.8 2.7-0.9 1.2-2.5 1.9-1.5 0.6-3.6 0.6zm23.6-2.6q0.5 0.5 0.5 1.1 0 0.5-0.5 1-0.4 0.4-1 0.4-0.6 0-1.2-0.5l-8.3-7.8v6.7q0 0.8-0.4 1.2-0.5 0.5-1.2 0.5-0.7 0-1.2-0.5-0.4-0.4-0.4-1.2v-14.6q0-0.8 0.4-1.2 0.5-0.4 1.2-0.4 0.7 0 1.2 0.4 0.4 0.4 0.4 1.2v6.4l8.1-7.6q0.4-0.4 1-0.4 0.6 0 1 0.4 0.4 0.5 0.4 1 0 0.6-0.5 1.1l-6.7 6.1c0 0 7.2 6.7 7.2 6.7zm4.4 2.6q-0.7 0-1.2-0.5-0.4-0.4-0.4-1.2v-14.6q0-0.8 0.4-1.2 0.5-0.4 1.2-0.4 0.7 0 1.2 0.4 0.4 0.4 0.4 1.2v14.6q0 0.8-0.4 1.2-0.5 0.5-1.2 0.5zm7-0.2q-0.8 0-1.2-0.4-0.4-0.4-0.4-1.1v-14.6q0-0.7 0.4-1.1 0.4-0.4 1.2-0.4h9q0.7 0 1.1 0.3 0.4 0.3 0.4 0.9 0 0.7-0.4 1-0.4 0.3-1.1 0.3h-7.4v4.9h6.9q0.7 0 1.1 0.3 0.4 0.3 0.4 1 0 0.6-0.4 0.9-0.4 0.3-1.1 0.3h-6.9v5.2h7.4q0.7 0 1.1 0.3 0.4 0.3 0.4 1 0 0.6-0.4 0.9-0.4 0.3-1.1 0.3zm26 0.2q-1.9 0-3.6-0.5-1.7-0.5-2.8-1.4-0.6-0.4-0.6-1.2 0-0.5 0.4-0.9 0.3-0.4 0.7-0.4 0.4 0 1 0.4 1.1 0.8 2.3 1.1 1.1 0.4 2.6 0.4 1.8 0 2.8-0.7 0.9-0.6 0.9-1.8 0-1-0.9-1.5-0.9-0.5-3-1-2.2-0.5-3.6-1.1-1.4-0.6-2.1-1.6-0.7-1-0.7-2.5 0-1.5 0.9-2.7 0.9-1.3 2.5-2 1.5-0.6 3.5-0.6 3.5 0 5.8 1.9 0.3 0.2 0.5 0.5 0.1 0.3 0.1 0.7 0 0.5-0.3 0.9-0.3 0.4-0.8 0.4-0.2 0-0.4-0.1-0.2-0.1-0.6-0.3-1-0.7-2-1.1-0.9-0.4-2.3-0.4-1.7 0-2.7 0.7-1 0.7-1 1.9 0 1.1 0.9 1.6 0.8 0.6 2.9 1 2.3 0.5 3.7 1.1 1.3 0.7 2.1 1.6 0.7 1 0.7 2.4 0 1.5-0.8 2.7-0.9 1.2-2.5 1.9-1.5 0.6-3.6 0.6zm15.7-0.1q-0.8 0-1.2-0.4-0.5-0.4-0.5-1.2v-13.5h-4.5q-1.5 0-1.5-1.3 0-1.3 1.5-1.3h12.3q1.5 0 1.5 1.3 0 1.3-1.5 1.3h-4.5v13.5q0 0.8-0.5 1.2-0.4 0.4-1.1 0.4zm17.4 0.1q-2.6 0-4.5-1.1-1.9-1.1-2.9-3.1-1-2.1-1-4.8 0-2.8 1-4.8 1-2 2.9-3.1 1.9-1.1 4.5-1.1 2.5 0 4.4 1.1 1.9 1.1 2.9 3.1 1 2 1 4.8 0 2.7-1 4.8-1 2-2.9 3.1-1.9 1.1-4.4 1.1zm0-2.5q2.4 0 3.8-1.7 1.3-1.7 1.3-4.8 0-3.1-1.3-4.8-1.4-1.7-3.8-1.7-2.5 0-3.8 1.7-1.4 1.7-1.4 4.8 0 3.1 1.4 4.8 1.3 1.7 3.8 1.7zm33.7-14.5q0.2-0.5 0.6-0.7 0.3-0.3 0.8-0.3 0.6 0 1.1 0.4 0.4 0.4 0.4 1 0 0.2-0.1 0.7l-5.4 14.8q-0.2 0.5-0.7 0.8-0.4 0.3-1 0.3-0.5 0-1-0.3-0.5-0.3-0.7-0.8l-4.1-11.7-4.2 11.7q-0.2 0.5-0.7 0.8-0.5 0.3-1 0.3-0.6 0-1-0.3-0.5-0.3-0.7-0.8l-5.3-14.8q-0.2-0.4-0.2-0.7 0-0.6 0.5-1 0.5-0.4 1.1-0.4 0.5 0 0.9 0.3 0.4 0.2 0.6 0.7l4.2 12.3 4.4-12.2q0.2-0.5 0.6-0.8 0.4-0.3 0.8-0.3 0.5 0 0.9 0.3 0.4 0.3 0.6 0.8l4.3 12.3zm21.6 14.9q0.1 0.3 0.1 0.6 0 0.6-0.4 1-0.5 0.4-1.1 0.4-0.4 0-0.7-0.2-0.4-0.2-0.6-0.7l-1.5-3.3h-8.8l-1.5 3.3q-0.2 0.5-0.5 0.7-0.4 0.2-0.8 0.2-0.6 0-1.1-0.4-0.4-0.4-0.4-1 0-0.3 0.1-0.6l6.9-14.9q0.2-0.5 0.7-0.7 0.5-0.3 1-0.3 0.5 0 1 0.3 0.4 0.2 0.7 0.7zm-11.9-4.7h6.6l-3.3-7.4zm28.5 4.6q0.3 0.5 0.3 0.9 0 0.6-0.4 0.9-0.5 0.4-1.1 0.4-0.4 0-0.8-0.2-0.3-0.2-0.6-0.5l-3.3-5.1q-0.5-0.8-1.1-1.1-0.5-0.3-1.4-0.3h-2.5v5.6q0 0.7-0.4 1.1-0.4 0.5-1.2 0.5-0.7 0-1.1-0.5-0.5-0.4-0.5-1.1v-14.7q0-0.7 0.5-1.1 0.4-0.4 1.1-0.4h6.2q3 0 4.6 1.3 1.6 1.4 1.6 3.9 0 2.1-1.2 3.4-1.2 1.3-3.3 1.7 0.7 0.1 1.3 0.6 0.5 0.4 1.1 1.2c0 0 2.2 3.5 2.2 3.5zm-6.7-7.5q1.8 0 2.7-0.7 0.8-0.7 0.8-2.1 0-1.5-0.8-2.1-0.9-0.7-2.7-0.7h-4.2v5.6zm21.1 7q1.5 0 1.5 1.2 0 1.3-1.5 1.3h-10.7q-0.6 0-1-0.4-0.4-0.3-0.4-0.9 0-0.6 0.4-1.2l9-12.5h-7.9q-1.5 0-1.5-1.3 0-1.3 1.5-1.3h10.4q0.6 0 1 0.4 0.4 0.4 0.4 1 0 0.5-0.4 1.1l-9 12.6c0 0 8.2 0 8.2 0zm15-14.7q0.4-0.5 1-0.5 0.6 0 1.1 0.4 0.4 0.5 0.4 1.1 0 0.5-0.4 0.9l-5.6 6.9v7q0 0.7-0.5 1.2-0.4 0.4-1.1 0.4-0.8 0-1.2-0.4-0.5-0.5-0.5-1.2v-7l-5.6-6.9q-0.4-0.4-0.4-0.9 0-0.6 0.4-1.1 0.5-0.4 1.1-0.4 0.6 0 1 0.5l5.2 6.4c0 0 5.1-6.4 5.1-6.4zm10.6 17.5q-1.9 0-3.6-0.6-1.7-0.5-2.8-1.3-0.6-0.5-0.6-1.2 0-0.6 0.4-1 0.3-0.3 0.7-0.3 0.4 0 1 0.3 1.1 0.8 2.3 1.1 1.1 0.4 2.6 0.4 1.8 0 2.8-0.7 0.9-0.6 0.9-1.8 0-1-0.9-1.5-0.9-0.5-3-1-2.2-0.4-3.6-1.1-1.4-0.6-2.1-1.6-0.7-0.9-0.7-2.4 0-1.6 0.9-2.8 0.9-1.2 2.5-1.9 1.5-0.7 3.5-0.7 3.5 0 5.8 1.9 0.3 0.3 0.5 0.5 0.1 0.3 0.1 0.7 0 0.5-0.3 0.9-0.3 0.4-0.8 0.4-0.2 0-0.4-0.1-0.2-0.1-0.6-0.3-1-0.7-2-1.1-0.9-0.3-2.3-0.3-1.7 0-2.7 0.6-1 0.7-1 2 0 1 0.9 1.5 0.8 0.6 2.9 1.1 2.3 0.5 3.7 1.1 1.3 0.6 2.1 1.5 0.7 1 0.7 2.4 0 1.6-0.8 2.7-0.9 1.2-2.5 1.9-1.5 0.7-3.6 0.7zm21-2.8q1.5 0 1.5 1.2 0 1.3-1.5 1.3h-10.7q-0.6 0-1-0.4-0.4-0.3-0.4-0.9 0-0.6 0.4-1.2l8.9-12.5h-7.8q-1.5 0-1.5-1.3 0-1.3 1.5-1.3h10.3q0.7 0 1.1 0.4 0.4 0.4 0.4 1 0 0.5-0.5 1.1l-8.9 12.6c0 0 8.2 0 8.2 0zm5.5 2.5q-0.7 0-1.1-0.4-0.5-0.4-0.5-1.1v-14.6q0-0.7 0.5-1.1 0.4-0.4 1.1-0.4h9q0.7 0 1.1 0.3 0.4 0.4 0.4 1 0 0.6-0.4 0.9-0.4 0.4-1.1 0.4h-7.4v4.8h6.9q0.7 0 1.1 0.3 0.4 0.4 0.4 1 0 0.6-0.4 0.9-0.4 0.3-1.1 0.3h-6.9v5.2h7.4q0.7 0 1.1 0.3 0.4 0.4 0.4 1 0 0.6-0.4 0.9-0.4 0.3-1.1 0.3zm26.5-17.7q0.7 0 1.2 0.4 0.4 0.5 0.4 1.2v14.7q0 0.7-0.5 1.1-0.4 0.5-1.1 0.5-0.8 0-1.2-0.6l-9.1-11.9v10.9q0 0.7-0.4 1.1-0.4 0.5-1.1 0.5-0.7 0-1.1-0.5-0.4-0.4-0.4-1.1v-14.7q0-0.7 0.4-1.2 0.4-0.4 1.1-0.4 0.8 0 1.2 0.6l9.1 11.8v-10.8q0-0.7 0.5-1.2 0.4-0.4 1-0.4zm7 17.9q-0.8 0-1.2-0.5-0.4-0.4-0.4-1.1v-14.7q0-0.7 0.4-1.2 0.4-0.4 1.2-0.4 0.7 0 1.2 0.4 0.4 0.5 0.4 1.2v14.7q0 0.7-0.4 1.1-0.5 0.5-1.2 0.5zm6.9-0.2q-0.7 0-1.1-0.4-0.4-0.4-0.4-1.1v-14.6q0-0.7 0.4-1.1 0.4-0.4 1.1-0.4h9.1q0.7 0 1.1 0.3 0.4 0.4 0.4 1 0 0.6-0.4 0.9-0.4 0.4-1.1 0.4h-7.5v4.8h7q0.7 0 1.1 0.3 0.4 0.4 0.4 1 0 0.6-0.4 0.9-0.4 0.3-1.1 0.3h-7v5.2h7.5q0.7 0 1.1 0.3 0.4 0.4 0.4 1 0 0.6-0.4 0.9-0.4 0.3-1.1 0.3zm33.3-17.7q0.7 0 1.1 0.4 0.4 0.5 0.4 1.2v14.7q0 0.7-0.4 1.1-0.5 0.5-1.1 0.5-0.8 0-1.3-0.6l-9.1-11.9v10.9q0 0.7-0.4 1.1-0.4 0.5-1.1 0.5-0.7 0-1.1-0.5-0.4-0.4-0.4-1.1v-14.7q0-0.7 0.4-1.2 0.5-0.4 1.2-0.4 0.7 0 1.2 0.6l9.1 11.8v-10.8q0-0.7 0.4-1.2 0.4-0.4 1.1-0.4zm21.3 15.8q0.1 0.3 0.1 0.7 0 0.5-0.4 0.9-0.5 0.4-1.1 0.4-0.4 0-0.8-0.2-0.3-0.2-0.5-0.6l-1.5-3.4h-8.8l-1.5 3.4q-0.2 0.4-0.6 0.6-0.3 0.2-0.7 0.2-0.6 0-1.1-0.4-0.5-0.4-0.5-0.9 0-0.4 0.2-0.7l6.9-14.8q0.2-0.5 0.7-0.8 0.4-0.2 1-0.2 0.5 0 1 0.2 0.4 0.3 0.6 0.8zm-11.8-4.7h6.6l-3.3-7.4zm35.3 4.6q0.3 0.4 0.3 0.8 0 0.6-0.5 1-0.4 0.4-1.1 0.4-0.4 0-0.7-0.2-0.4-0.2-0.6-0.6l-3.4-5q-0.5-0.8-1-1.2-0.6-0.3-1.5-0.3h-2.4v5.6q0 0.8-0.5 1.2-0.4 0.4-1.1 0.4-0.7 0-1.2-0.4-0.4-0.4-0.4-1.2v-14.6q0-0.7 0.4-1.1 0.4-0.4 1.1-0.4h6.3q3 0 4.6 1.3 1.5 1.3 1.5 3.9 0 2-1.1 3.3-1.2 1.3-3.3 1.7 0.7 0.2 1.2 0.6 0.6 0.5 1.1 1.3c0 0 2.3 3.5 2.3 3.5zm-6.8-7.6q1.9 0 2.7-0.7 0.9-0.6 0.9-2.1 0-1.4-0.9-2.1-0.8-0.6-2.7-0.6h-4.2v5.5zm21.1 7q1.5 0 1.5 1.3 0 1.3-1.5 1.3h-10.6q-0.7 0-1-0.4-0.4-0.4-0.4-1 0-0.6 0.4-1.1l8.9-12.6h-7.8q-1.5 0-1.5-1.2 0-1.3 1.5-1.3h10.3q0.7 0 1.1 0.3 0.3 0.4 0.3 1 0 0.6-0.4 1.2l-8.9 12.5c0 0 8.1 0 8.1 0zm5.6 2.6q-0.8 0-1.2-0.4-0.4-0.4-0.4-1.1v-14.6q0-0.7 0.4-1.1 0.4-0.4 1.2-0.4h9q0.7 0 1.1 0.3 0.4 0.3 0.4 0.9 0 0.6-0.4 1-0.4 0.3-1.1 0.3h-7.4v4.9h6.9q0.7 0 1.1 0.3 0.4 0.3 0.4 0.9 0 0.6-0.4 1-0.4 0.3-1.1 0.3h-6.9v5.1h7.4q0.7 0 1.1 0.4 0.4 0.3 0.4 0.9 0 0.6-0.4 1-0.4 0.3-1.1 0.3zm21 0.2q-2.5 0-4.4-1.1-1.9-1.1-3-3.1-1-2.1-1-4.8 0-2.8 1-4.8 1.1-2.1 3-3.2 1.9-1.1 4.4-1.1 1.7 0 3.1 0.5 1.5 0.5 2.6 1.4 0.3 0.3 0.5 0.6 0.1 0.2 0.1 0.6 0 0.6-0.3 1-0.3 0.3-0.7 0.3-0.5 0-1.1-0.3-1-0.8-2-1.1-0.9-0.3-2-0.3-2.6 0-3.9 1.6-1.4 1.6-1.4 4.8 0 3.1 1.4 4.8 1.3 1.6 3.9 1.6 1.1 0 2-0.3 0.9-0.4 2-1.1 0.3-0.2 0.5-0.3 0.3-0.1 0.6-0.1 0.4 0 0.7 0.4 0.3 0.4 0.3 0.9 0 0.4-0.1 0.7-0.2 0.3-0.5 0.5-1.1 0.9-2.6 1.4-1.4 0.5-3.1 0.5zm20.2-2.8q1.5 0 1.5 1.3 0 1.3-1.5 1.3h-10.7q-0.6 0-1-0.4-0.4-0.4-0.4-1 0-0.6 0.4-1.1l9-12.6h-7.9q-1.5 0-1.5-1.2 0-1.3 1.5-1.3h10.4q0.6 0 1 0.3 0.4 0.4 0.4 1 0 0.6-0.4 1.2l-9 12.5c0 0 8.2 0 8.2 0z"/>
			<path id="_257563272" fill-rule="evenodd" class="s1" d="m620.1 28.9q-2.5 0-4.4-1.1-1.9-1.1-2.9-3.1-1.1-2.1-1.1-4.8 0-2.8 1.1-4.8 1-2 2.9-3.1 1.9-1.1 4.4-1.1 2.6 0 4.5 1.1 1.9 1.1 2.9 3.1 1 2 1 4.8 0 2.7-1 4.8-1 2-2.9 3.1-1.9 1.1-4.5 1.1zm0-2.5q2.5 0 3.8-1.7 1.4-1.7 1.4-4.8 0-3.1-1.4-4.8-1.3-1.7-3.8-1.7-2.4 0-3.8 1.7-1.3 1.7-1.3 4.8 0 3.1 1.3 4.8 1.4 1.7 3.8 1.7zm17.8 2.5q-2 0-3.7-0.5-1.7-0.5-2.8-1.4-0.5-0.4-0.5-1.2 0-0.5 0.3-0.9 0.3-0.4 0.7-0.4 0.5 0 1 0.4 1.1 0.8 2.3 1.1 1.2 0.4 2.6 0.4 1.8 0 2.8-0.7 1-0.6 1-1.8 0-1-0.9-1.5-1-0.5-3.1-1-2.2-0.5-3.6-1.1-1.3-0.6-2-1.6-0.7-1-0.7-2.5 0-1.5 0.8-2.7 0.9-1.3 2.5-2 1.5-0.6 3.5-0.6 3.6 0 5.8 1.9 0.3 0.2 0.5 0.5 0.1 0.3 0.1 0.7 0 0.5-0.3 0.9-0.3 0.4-0.7 0.4-0.3 0-0.5-0.1-0.2-0.1-0.6-0.3-1-0.7-1.9-1.1-1-0.4-2.4-0.4-1.7 0-2.7 0.7-1 0.7-1 1.9 0 1.1 0.9 1.6 0.9 0.6 3 1 2.2 0.5 3.6 1.1 1.4 0.7 2.1 1.6 0.7 1 0.7 2.4 0 1.5-0.8 2.7-0.9 1.2-2.4 1.9-1.6 0.6-3.6 0.6zm17.7 0q-2.6 0-4.5-1.1-1.9-1.1-2.9-3.1-1-2.1-1-4.8 0-2.8 1-4.8 1-2 2.9-3.1 1.9-1.1 4.5-1.1 2.5 0 4.4 1.1 1.9 1.1 2.9 3.1 1 2 1 4.8 0 2.7-1 4.8-1 2-2.9 3.1-1.9 1.1-4.4 1.1zm0-2.5q2.4 0 3.8-1.7 1.3-1.7 1.3-4.8 0-3.1-1.3-4.8-1.4-1.7-3.8-1.7-2.5 0-3.8 1.7-1.4 1.7-1.4 4.8 0 3.1 1.4 4.8 1.3 1.7 3.8 1.7zm0.3-16.8q-0.2 0.1-0.4 0.1-0.3 0-0.5-0.2-0.2-0.2-0.2-0.5 0-0.3 0.2-0.5l2.3-2.4q0.5-0.5 1.1-0.5 0.5 0 0.9 0.4 0.3 0.3 0.3 0.8 0 0.3-0.2 0.6-0.2 0.3-0.6 0.6c0 0-2.9 1.6-2.9 1.6zm22.1 10q1.6 0.4 2.4 1.6 0.8 1.1 0.8 2.7 0 2.3-1.6 3.5-1.6 1.3-4.4 1.3h-6.5q-0.7 0-1.1-0.4-0.4-0.4-0.4-1.1v-14.6q0-0.7 0.4-1.1 0.4-0.4 1.1-0.4h6.2q2.8 0 4.4 1.2 1.5 1.2 1.5 3.4 0 1.4-0.7 2.4-0.8 1-2.1 1.5zm-3.6-1.1q3.3 0 3.3-2.5 0-1.2-0.8-1.8-0.8-0.6-2.5-0.6h-4.1c0 0 0 4.9 0 4.9zm0.5 7.7q1.7 0 2.5-0.6 0.8-0.6 0.8-2 0-1.3-0.8-1.9-0.8-0.7-2.5-0.7h-4.5v5.2zm-530.2 30.6q1.5 0 1.5 1.3 0 1.3-1.5 1.3h-10.7q-0.6 0-1-0.4-0.4-0.4-0.4-1 0-0.6 0.4-1.2l8.9-12.5h-7.8q-1.5 0-1.5-1.3 0-1.3 1.5-1.3h10.3q0.7 0 1.1 0.4 0.4 0.4 0.4 1 0 0.6-0.5 1.1l-8.9 12.6c0 0 8.2 0 8.2 0zm24.1-15.2q0.7 0 1.1 0.4 0.4 0.5 0.4 1.2v14.7q0 0.7-0.4 1.2-0.5 0.4-1.1 0.4-0.8 0-1.3-0.6l-9.1-11.8v10.8q0 0.7-0.4 1.2-0.4 0.4-1.1 0.4-0.7 0-1.1-0.4-0.4-0.5-0.4-1.2v-14.7q0-0.7 0.4-1.2 0.5-0.4 1.2-0.4 0.7 0 1.2 0.6l9.1 11.8v-10.8q0-0.7 0.4-1.2 0.4-0.4 1.1-0.4zm6.9 17.9q-0.7 0-1.2-0.4-0.4-0.5-0.4-1.2v-14.7q0-0.7 0.4-1.2 0.5-0.4 1.2-0.4 0.7 0 1.2 0.4 0.4 0.5 0.4 1.2v14.7q0 0.7-0.4 1.2-0.5 0.4-1.2 0.4zm7-0.1q-0.8 0-1.2-0.4-0.4-0.4-0.4-1.2v-14.5q0-0.8 0.4-1.2 0.4-0.4 1.2-0.4h9q0.7 0 1.1 0.4 0.4 0.3 0.4 0.9 0 0.6-0.4 0.9-0.4 0.4-1.1 0.4h-7.4v4.8h6.9q0.7 0 1.1 0.4 0.4 0.3 0.4 0.9 0 0.6-0.4 0.9-0.4 0.4-1.1 0.4h-6.9v5.1h7.4q0.7 0 1.1 0.3 0.4 0.4 0.4 1 0 0.6-0.4 0.9-0.4 0.4-1.1 0.4zm14.8 0.1q-0.8 0-1.2-0.4-0.4-0.5-0.4-1.2v-14.6q0-0.8 0.4-1.2 0.4-0.4 1.1-0.4h6.2q2.8 0 4.4 1.4 1.5 1.5 1.5 4 0 2.6-1.5 4-1.6 1.4-4.4 1.4h-4.5v5.4q0 0.7-0.4 1.2-0.5 0.4-1.2 0.4zm5.7-9.5q3.3 0 3.3-2.9 0-2.9-3.3-2.9h-4.1v5.8zm10.7 9.4q-0.7 0-1.1-0.4-0.4-0.4-0.4-1.2v-14.5q0-0.8 0.4-1.2 0.4-0.4 1.1-0.4h9.1q0.7 0 1.1 0.4 0.4 0.3 0.4 0.9 0 0.6-0.4 0.9-0.4 0.4-1.1 0.4h-7.5v4.8h7q0.7 0 1.1 0.4 0.4 0.3 0.4 0.9 0 0.6-0.4 0.9-0.4 0.4-1.1 0.4h-7v5.1h7.5q0.7 0 1.1 0.3 0.4 0.4 0.4 1 0 0.6-0.4 0.9-0.4 0.4-1.1 0.4zm24-2.7q1.5 0 1.5 1.3 0 1.4-1.5 1.4h-8.7q-0.8 0-1.2-0.4-0.4-0.4-0.4-1.1v-5.1l-0.5 0.3q-0.4 0.2-0.8 0.2-0.5 0-0.8-0.3-0.4-0.4-0.4-0.9 0-0.7 0.8-1.1l1.7-1v-6.8q0-0.7 0.5-1.2 0.4-0.4 1.1-0.4 0.8 0 1.2 0.4 0.4 0.5 0.4 1.2v4.9l3-1.6q0.3-0.3 0.7-0.3 0.5 0 0.9 0.4 0.3 0.4 0.3 0.8 0 0.7-0.7 1.1l-4.2 2.4v5.8c0 0 7.1 0 7.1 0zm16.9-15.1q0.7 0 1.2 0.4 0.4 0.5 0.4 1.2v14.7q0 0.7-0.5 1.2-0.4 0.4-1.1 0.4-0.8 0-1.2-0.6l-9.1-11.8v10.8q0 0.7-0.4 1.2-0.4 0.4-1.1 0.4-0.7 0-1.1-0.4-0.4-0.5-0.4-1.2v-14.7q0-0.7 0.4-1.2 0.4-0.4 1.1-0.4 0.8 0 1.2 0.6l9.1 11.8v-10.8q0-0.7 0.5-1.2 0.4-0.4 1-0.4zm13.2 18q-2.6 0-4.4-1.1-1.9-1.1-3-3.2-1-2-1-4.8 0-2.7 1-4.8 1-2 2.9-3.1 1.9-1.1 4.5-1.1 2.6 0 4.5 1.1 1.9 1.1 2.9 3.1 1 2.1 1 4.8 0 2.8-1 4.8-1.1 2.1-2.9 3.2-1.9 1.1-4.5 1.1zm0-2.6q2.4 0 3.8-1.7 1.4-1.6 1.4-4.8 0-3.1-1.4-4.8-1.4-1.6-3.8-1.6-2.4 0-3.8 1.6-1.4 1.7-1.4 4.8 0 3.2 1.4 4.8 1.4 1.7 3.8 1.7zm17.7 2.6q-1.9 0-3.6-0.5-1.7-0.5-2.8-1.4-0.6-0.4-0.6-1.2 0-0.5 0.4-0.9 0.3-0.4 0.7-0.4 0.4 0 1 0.3 1.1 0.8 2.3 1.2 1.1 0.3 2.6 0.3 1.8 0 2.8-0.6 0.9-0.7 0.9-1.9 0-0.9-0.9-1.5-0.9-0.5-3-0.9-2.2-0.5-3.6-1.1-1.4-0.7-2.1-1.6-0.7-1-0.7-2.5 0-1.6 0.9-2.8 0.9-1.2 2.5-1.9 1.5-0.7 3.5-0.7 3.5 0 5.8 1.9 0.3 0.3 0.5 0.5 0.1 0.3 0.1 0.7 0 0.5-0.3 0.9-0.3 0.4-0.8 0.4-0.2 0-0.4-0.1-0.2 0-0.6-0.2-1-0.8-2-1.2-0.9-0.3-2.3-0.3-1.7 0-2.7 0.7-1 0.7-1 1.9 0 1 0.9 1.6 0.8 0.5 2.9 1 2.3 0.5 3.7 1.1 1.3 0.6 2.1 1.6 0.7 0.9 0.7 2.3 0 1.6-0.8 2.8-0.9 1.2-2.5 1.8-1.5 0.7-3.6 0.7zm11.5-0.1q-0.7 0-1.2-0.4-0.4-0.5-0.4-1.2v-14.6q0-0.8 0.4-1.2 0.4-0.4 1.1-0.4h6.2q2.8 0 4.4 1.4 1.6 1.5 1.6 4 0 2.6-1.6 4-1.6 1.4-4.4 1.4h-4.5v5.4q0 0.7-0.4 1.2-0.5 0.4-1.2 0.4zm5.7-9.5q3.3 0 3.3-2.9 0-2.9-3.3-2.9h-4.1v5.8zm23.3 7.3q0.3 0.5 0.3 0.9 0 0.6-0.4 1-0.5 0.3-1.1 0.3-0.4 0-0.8-0.2-0.4-0.1-0.6-0.5l-3.3-5.1q-0.5-0.8-1.1-1.1-0.6-0.3-1.5-0.3h-2.4v5.6q0 0.7-0.4 1.2-0.5 0.4-1.2 0.4-0.7 0-1.1-0.4-0.5-0.5-0.5-1.2v-14.6q0-0.8 0.4-1.2 0.4-0.4 1.2-0.4h6.2q3 0 4.6 1.4 1.5 1.3 1.5 3.8 0 2.1-1.1 3.4-1.2 1.3-3.3 1.7 0.7 0.2 1.3 0.6 0.5 0.5 1 1.3c0 0 2.3 3.4 2.3 3.4zm-6.7-7.5q1.8 0 2.6-0.7 0.9-0.7 0.9-2.1 0-1.4-0.9-2.1-0.8-0.7-2.6-0.7h-4.2v5.6zm26 7.6q0.1 0.4 0.1 0.7 0 0.6-0.4 1-0.5 0.4-1.1 0.4-0.4 0-0.8-0.3-0.3-0.2-0.5-0.6l-1.5-3.4h-8.8l-1.5 3.4q-0.2 0.4-0.6 0.6-0.3 0.3-0.7 0.3-0.6 0-1.1-0.4-0.5-0.4-0.5-1 0-0.3 0.2-0.7l6.9-14.8q0.2-0.5 0.7-0.8 0.4-0.2 1-0.2 0.5 0 1 0.2 0.4 0.3 0.6 0.8zm-11.8-4.7h6.6l-3.3-7.4zm36.5-10.2q0.2-0.5 0.6-0.7 0.4-0.3 0.8-0.3 0.6 0 1.1 0.4 0.4 0.4 0.4 1 0 0.2-0.1 0.6l-5.4 14.9q-0.2 0.5-0.6 0.8-0.5 0.3-1.1 0.3-0.5 0-1-0.3-0.5-0.3-0.6-0.8l-4.2-11.8-4.2 11.8q-0.2 0.5-0.7 0.8-0.4 0.3-1 0.3-0.5 0-1-0.3-0.5-0.3-0.6-0.8l-5.4-14.9q-0.1-0.3-0.1-0.6 0-0.6 0.4-1 0.5-0.4 1.1-0.4 0.5 0 0.9 0.3 0.4 0.2 0.6 0.7l4.2 12.2 4.4-12.1q0.2-0.5 0.6-0.8 0.4-0.3 0.9-0.3 0.4 0 0.9 0.3 0.4 0.3 0.5 0.8l4.3 12.3zm19-1q0.7 0 1.1 0.5 0.4 0.4 0.4 1.1v14.7q0 0.7-0.4 1.2-0.4 0.4-1.1 0.4-0.8 0-1.2-0.6l-9.2-11.8v10.8q0 0.7-0.4 1.2-0.4 0.4-1.1 0.4-0.7 0-1.1-0.4-0.4-0.5-0.4-1.2v-14.7q0-0.7 0.5-1.1 0.4-0.5 1.1-0.5 0.8 0 1.2 0.6l9.1 11.8v-10.8q0-0.7 0.4-1.1 0.4-0.5 1.1-0.5zm13.2 18q-2.6 0-4.5-1.1-1.9-1.1-2.9-3.2-1-2-1-4.8 0-2.7 1-4.7 1-2.1 2.9-3.2 1.9-1.1 4.5-1.1 2.5 0 4.4 1.1 1.9 1.1 2.9 3.2 1 2 1 4.7 0 2.8-1 4.8-1 2.1-2.9 3.2-1.9 1.1-4.4 1.1zm0-2.6q2.4 0 3.8-1.7 1.3-1.6 1.3-4.8 0-3.1-1.3-4.7-1.4-1.7-3.8-1.7-2.5 0-3.8 1.7-1.4 1.6-1.4 4.7 0 3.2 1.4 4.8 1.3 1.7 3.8 1.7zm17.7 2.6q-1.9 0-3.6-0.5-1.8-0.5-2.8-1.4-0.6-0.4-0.6-1.2 0-0.5 0.3-0.9 0.3-0.4 0.7-0.4 0.5 0 1.1 0.3 1 0.8 2.2 1.2 1.2 0.3 2.6 0.3 1.8 0 2.8-0.6 1-0.6 1-1.9 0-0.9-0.9-1.4-0.9-0.6-3.1-1-2.2-0.5-3.5-1.1-1.4-0.7-2.1-1.6-0.7-1-0.7-2.5 0-1.6 0.9-2.8 0.8-1.2 2.4-1.9 1.6-0.7 3.5-0.7 3.6 0 5.8 1.9 0.4 0.3 0.5 0.6 0.1 0.2 0.1 0.6 0 0.5-0.3 0.9-0.3 0.4-0.7 0.4-0.3 0-0.5-0.1-0.2 0-0.5-0.2-1.1-0.8-2-1.1-1-0.4-2.4-0.4-1.7 0-2.7 0.7-1 0.7-1 1.9 0 1 0.9 1.6 0.9 0.5 3 1 2.2 0.5 3.6 1.1 1.4 0.6 2.1 1.6 0.8 0.9 0.8 2.3 0 1.6-0.9 2.8-0.9 1.2-2.4 1.8-1.6 0.7-3.6 0.7zm0.4-19.3q-0.2 0.1-0.4 0.1-0.3 0-0.5-0.2-0.3-0.3-0.3-0.5 0-0.3 0.3-0.6l2.3-2.3q0.5-0.5 1.1-0.5 0.5 0 0.8 0.3 0.4 0.4 0.4 0.9 0 0.3-0.2 0.6-0.2 0.3-0.7 0.5c0 0-2.8 1.7-2.8 1.7zm17.3 19.3q-2.5 0-4.4-1.1-2-1.1-3-3.2-1-2-1-4.8 0-2.7 1-4.7 1-2.1 3-3.2 1.9-1.1 4.4-1.1 1.7 0 3.1 0.5 1.5 0.5 2.6 1.4 0.3 0.3 0.4 0.5 0.2 0.3 0.2 0.7 0 0.6-0.3 0.9-0.3 0.4-0.8 0.4-0.5 0-1-0.3-1.1-0.8-2-1.1-0.9-0.3-2-0.4-2.6 0-4 1.7-1.3 1.6-1.3 4.7 0 3.2 1.3 4.8 1.4 1.7 4 1.7 1 0 2-0.4 0.9-0.3 2-1.1 0.3-0.1 0.5-0.2 0.3-0.1 0.5-0.1 0.5 0 0.8 0.4 0.3 0.3 0.3 0.9 0 0.4-0.2 0.7-0.1 0.3-0.4 0.5-1.1 0.9-2.6 1.4-1.4 0.5-3.1 0.5zm10.7-0.1q-0.7 0-1.2-0.4-0.4-0.5-0.4-1.2v-14.7q0-0.7 0.4-1.1 0.5-0.5 1.2-0.5 0.7 0 1.2 0.5 0.4 0.4 0.4 1.1v14.7q0 0.7-0.4 1.2-0.5 0.4-1.2 0.4zm21.7 2.8q0.2-0.1 0.3-0.1 0.3 0.1 0.4 0.3 0.2 0.2 0.2 0.5 0 0.5-0.4 0.7-0.9 0.5-2.1 0.5-1.3 0-2.2-0.7-0.9-0.8-0.9-2 0-0.8 0.5-1.6 0.4-0.7 1.3-1.1l-0.1-0.2-1.5-3.4h-8.8l-1.5 3.4q-0.2 0.4-0.5 0.7-0.4 0.2-0.8 0.2-0.6 0-1.1-0.4-0.4-0.4-0.4-1 0-0.3 0.1-0.7l6.9-14.8q0.2-0.5 0.7-0.7 0.5-0.3 1-0.3 0.5 0 1 0.3 0.4 0.2 0.7 0.7l6.9 14.8q0.1 0.4 0.1 0.7 0 0.4-0.2 0.7-0.2 0.4-0.6 0.5-1.6 0.6-1.6 1.8 0 0.7 0.4 1 0.4 0.4 1 0.4 0.6 0 1.2-0.2zm-12.2-9.6h6.6l-3.3-7.4zm22.8 6.8q-0.7 0-1.1-0.5-0.5-0.4-0.5-1.1v-14.7q0-0.7 0.5-1.2 0.4-0.4 1.1-0.4 0.8 0 1.2 0.4 0.5 0.5 0.5 1.2v14.7q0 0.7-0.5 1.1-0.4 0.5-1.2 0.5z"/>
			<path id="_257563056" fill-rule="evenodd" class="s1" d="m499.5 41.6q0.7 0 1.2 0.4 0.4 0.5 0.4 1.2v14.7q0 0.7-0.5 1.2-0.4 0.4-1.1 0.4-0.8 0-1.2-0.6l-9.1-11.8v10.8q0 0.7-0.4 1.2-0.4 0.4-1.1 0.4-0.7 0-1.1-0.4-0.4-0.5-0.4-1.2v-14.7q0-0.7 0.4-1.2 0.4-0.4 1.1-0.4 0.8 0 1.2 0.6l9.1 11.8v-10.8q0-0.7 0.5-1.2 0.4-0.4 1-0.4zm11.1 17.9q-0.7 0-1.1-0.5-0.5-0.4-0.5-1.1v-13.5h-4.5q-1.5 0-1.5-1.3 0-1.4 1.5-1.4h12.3q1.5 0 1.5 1.4 0 1.3-1.5 1.3h-4.6v13.5q0 0.7-0.4 1.1-0.4 0.5-1.2 0.5zm11.1-0.1q-0.7 0-1.1-0.4-0.4-0.4-0.4-1.2v-14.5q0-0.8 0.4-1.2 0.4-0.4 1.1-0.4h9.1q0.7 0 1.1 0.4 0.4 0.3 0.4 0.9 0 0.6-0.4 0.9-0.4 0.4-1.1 0.4h-7.5v4.8h7q0.7 0 1.1 0.4 0.4 0.3 0.4 0.9 0 0.6-0.4 0.9-0.4 0.4-1.1 0.4h-7v5.1h7.5q0.7 0 1.1 0.3 0.4 0.4 0.4 1 0 0.6-0.4 0.9-0.4 0.4-1.1 0.4zm14.7 0q-0.8 0-1.2-0.4-0.4-0.4-0.4-1.1v-14.7q0-0.7 0.5-1.2 0.4-0.4 1.1-0.4 0.8 0 1.2 0.4 0.5 0.5 0.5 1.2v13.5h7q1.5 0 1.5 1.3 0 1.4-1.5 1.4zm13.9 0q-0.7 0-1.1-0.4-0.5-0.4-0.5-1.2v-14.5q0-0.8 0.5-1.2 0.4-0.4 1.1-0.4h9q0.7 0 1.1 0.4 0.4 0.3 0.4 0.9 0 0.6-0.4 0.9-0.4 0.4-1.1 0.4h-7.4v4.8h6.9q0.7 0 1.1 0.4 0.4 0.3 0.4 0.9 0 0.6-0.4 0.9-0.4 0.4-1.1 0.4h-6.9v5.1h7.4q0.7 0 1.1 0.3 0.4 0.4 0.4 1 0 0.6-0.4 0.9-0.4 0.4-1.1 0.4zm26.9-2.5q0.5 0.5 0.5 1.1 0 0.6-0.5 1-0.4 0.5-1 0.5-0.6 0-1.2-0.6l-8.3-7.8v6.8q0 0.7-0.4 1.2-0.5 0.4-1.2 0.4-0.7 0-1.2-0.4-0.4-0.5-0.4-1.2v-14.7q0-0.7 0.4-1.2 0.5-0.4 1.2-0.4 0.7 0 1.2 0.4 0.4 0.5 0.4 1.2v6.4l8.1-7.5q0.4-0.5 1-0.5 0.6 0 1 0.5 0.4 0.4 0.4 1 0 0.6-0.5 1l-6.7 6.2c0 0 7.2 6.6 7.2 6.6zm8.6 2.6q-0.8 0-1.2-0.5-0.5-0.4-0.5-1.1v-13.5h-4.5q-1.5 0-1.5-1.3 0-1.4 1.5-1.4h12.3q1.5 0 1.5 1.4 0 1.3-1.5 1.3h-4.5v13.5q0 0.7-0.5 1.1-0.4 0.5-1.1 0.5zm16.8 0.1q-3.6 0-5.5-1.9-1.9-1.9-1.9-5.5v-9q0-0.7 0.4-1.2 0.5-0.4 1.2-0.4 0.7 0 1.1 0.4 0.5 0.5 0.5 1.2v9.2q0 2.3 1 3.4 1.1 1.2 3.2 1.2 2 0 3.1-1.2 1.1-1.1 1.1-3.4v-9.2q0-0.7 0.4-1.2 0.4-0.4 1.2-0.4 0.7 0 1.1 0.4 0.4 0.5 0.4 1.2v9q0 3.6-1.8 5.5-1.9 1.9-5.5 1.9zm27-2.2q0.2 0.4 0.2 0.7 0 0.6-0.5 1-0.5 0.4-1.1 0.4-0.4 0-0.7-0.3-0.4-0.2-0.6-0.6l-1.5-3.4h-8.8l-1.5 3.4q-0.2 0.4-0.5 0.6-0.4 0.3-0.8 0.3-0.6 0-1-0.4-0.5-0.4-0.5-1 0-0.3 0.1-0.7l6.9-14.8q0.3-0.5 0.7-0.8 0.5-0.2 1-0.2 0.5 0 1 0.2 0.5 0.3 0.7 0.8zm-11.9-4.7h6.6l-3.3-7.4zm16 6.6q-0.7 0-1.1-0.4-0.4-0.4-0.4-1.1v-14.7q0-0.7 0.4-1.1 0.4-0.4 1.2-0.5 0.7 0.1 1.2 0.5 0.4 0.4 0.4 1.1v13.5h7q1.5 0 1.5 1.4 0 1.3-1.5 1.3zm25.7-17.8q0.7 0.1 1.1 0.5 0.4 0.4 0.4 1.1v14.7q0 0.8-0.4 1.2-0.4 0.5-1.1 0.5-0.8 0-1.2-0.6l-9.1-11.9v10.8q0 0.8-0.4 1.2-0.4 0.5-1.1 0.5-0.7 0-1.1-0.5-0.4-0.4-0.4-1.2v-14.7q0-0.7 0.4-1.1 0.4-0.4 1.1-0.5 0.8 0 1.2 0.6l9.1 11.8v-10.8q0-0.7 0.4-1.1 0.4-0.4 1.1-0.5zm21.7 20.7q0.2 0 0.2 0 0.3 0 0.5 0.2 0.1 0.2 0.1 0.5 0 0.5-0.4 0.8-0.9 0.5-2.1 0.5-1.3 0-2.2-0.8-0.9-0.8-0.9-2 0-0.8 0.5-1.5 0.4-0.7 1.3-1.2l-0.1-0.2-1.5-3.3h-8.8l-1.5 3.3q-0.2 0.5-0.5 0.7-0.4 0.2-0.8 0.2-0.6 0-1-0.4-0.5-0.4-0.5-1 0-0.3 0.1-0.6l6.9-14.9q0.3-0.5 0.7-0.7 0.5-0.3 1-0.3 0.5 0 1 0.3 0.5 0.2 0.7 0.7l6.9 14.9q0.2 0.3 0.2 0.6 0 0.4-0.3 0.8-0.2 0.3-0.6 0.4-1.6 0.6-1.6 1.8 0 0.7 0.4 1.1 0.4 0.4 1.1 0.4 0.6 0 1.2-0.3zm-12.3-9.5h6.6l-3.3-7.5zm-521.6 34.9q0.5 0.5 0.5 1.1 0 0.5-0.4 1-0.5 0.4-1.1 0.4-0.6 0-1.1-0.5l-8.3-7.8v6.7q0 0.8-0.5 1.2-0.4 0.5-1.2 0.5-0.7 0-1.1-0.5-0.5-0.4-0.5-1.2v-14.6q0-0.8 0.5-1.2 0.4-0.4 1.1-0.4 0.8 0 1.2 0.4 0.5 0.4 0.5 1.2v6.4l8-7.6q0.5-0.4 1-0.4 0.6 0 1.1 0.4 0.4 0.5 0.4 1 0 0.6-0.5 1.1l-6.7 6.1c0 0 7.1 6.7 7.1 6.7zm10.7 2.6q-2.6 0-4.5-1.1-1.9-1.1-2.9-3.1-1-2.1-1-4.8 0-2.8 1-4.8 1-2 2.9-3.1 1.9-1.1 4.5-1.1 2.6 0 4.5 1.1 1.8 1.1 2.9 3.1 1 2 1 4.8 0 2.7-1.1 4.8-1 2-2.9 3.1-1.9 1.1-4.4 1.1zm0-2.5q2.4 0 3.8-1.7 1.3-1.7 1.3-4.8 0-3.1-1.3-4.8-1.4-1.7-3.8-1.7-2.5 0-3.8 1.7-1.4 1.7-1.4 4.8 0 3.1 1.4 4.8 1.3 1.7 3.8 1.7zm22.4-0.3q1.5 0 1.5 1.3 0 1.3-1.5 1.3h-8.7q-0.7 0-1.1-0.4-0.4-0.4-0.4-1.1v-5.1l-0.6 0.4q-0.3 0.2-0.7 0.2-0.5 0-0.8-0.4-0.4-0.3-0.4-0.8 0-0.8 0.7-1.1l1.8-1.1v-6.7q0-0.8 0.5-1.2 0.4-0.4 1.1-0.4 0.8 0 1.2 0.4 0.4 0.4 0.4 1.2v4.9l2.9-1.7q0.4-0.2 0.8-0.2 0.5 0 0.8 0.4 0.4 0.3 0.4 0.8 0 0.7-0.7 1.1l-4.2 2.4v5.8c0 0 7 0 7 0zm11.5 2.8q-2.6 0-4.4-1.1-1.9-1.1-3-3.1-1-2.1-1-4.8 0-2.8 1-4.8 1-2 2.9-3.1 1.9-1.1 4.5-1.1 2.6 0 4.5 1.1 1.9 1.1 2.9 3.1 1 2 1 4.8 0 2.7-1 4.8-1.1 2-2.9 3.1-1.9 1.1-4.5 1.1zm0-2.5q2.4 0 3.8-1.7 1.4-1.7 1.4-4.8 0-3.1-1.4-4.8-1.4-1.7-3.8-1.7-2.4 0-3.8 1.7-1.4 1.7-1.4 4.8 0 3.1 1.4 4.8 1.4 1.7 3.8 1.7zm40.5-14.5q0.2-0.5 0.6-0.7 0.4-0.3 0.8-0.3 0.6 0 1.1 0.4 0.4 0.4 0.4 1 0 0.2-0.1 0.7l-5.4 14.8q-0.2 0.5-0.6 0.8-0.5 0.3-1.1 0.3-0.5 0-1-0.3-0.5-0.3-0.6-0.8l-4.2-11.7-4.2 11.7q-0.2 0.5-0.7 0.8-0.4 0.3-1 0.3-0.5 0-1-0.3-0.5-0.3-0.6-0.8l-5.4-14.8q-0.1-0.4-0.1-0.7 0-0.6 0.4-1 0.5-0.4 1.1-0.4 0.5 0 0.9 0.3 0.4 0.2 0.6 0.7l4.2 12.3 4.4-12.2q0.2-0.5 0.6-0.8 0.4-0.3 0.9-0.3 0.4 0 0.9 0.3 0.4 0.3 0.5 0.8l4.3 12.3zm18.5 17q-1.9 0-3.6-0.5-1.7-0.5-2.8-1.4-0.6-0.4-0.6-1.2 0-0.5 0.3-0.9 0.3-0.4 0.8-0.4 0.4 0 1 0.4 1.1 0.7 2.2 1.1 1.2 0.3 2.6 0.3 1.9 0 2.8-0.6 1-0.6 1-1.9 0-0.9-0.9-1.4-0.9-0.5-3-1-2.2-0.5-3.6-1.1-1.4-0.6-2.1-1.6-0.7-1-0.7-2.5 0-1.5 0.9-2.8 0.9-1.2 2.4-1.9 1.6-0.7 3.5-0.7 3.6 0 5.9 1.9 0.3 0.3 0.4 0.6 0.2 0.2 0.2 0.6 0 0.6-0.3 1-0.4 0.3-0.8 0.3-0.2 0-0.4 0-0.3-0.1-0.6-0.3-1-0.8-2-1.1-1-0.4-2.4-0.4-1.7 0-2.6 0.7-1 0.7-1 1.9 0 1 0.8 1.6 0.9 0.5 3 1 2.2 0.5 3.6 1.1 1.4 0.6 2.2 1.6 0.7 0.9 0.7 2.4 0 1.5-0.9 2.7-0.8 1.2-2.4 1.9-1.6 0.6-3.6 0.6zm15.6-0.1q-0.7 0-1.1-0.4-0.5-0.5-0.5-1.2v-13.5h-4.5q-1.5 0-1.5-1.3 0-1.3 1.5-1.3h12.3q1.5 0 1.5 1.3 0 1.3-1.5 1.3h-4.6v13.5q0 0.7-0.4 1.2-0.4 0.4-1.2 0.4zm25.6-2q0.1 0.3 0.1 0.6 0 0.6-0.4 1-0.5 0.4-1.1 0.4-0.4 0-0.8-0.2-0.3-0.2-0.5-0.7l-1.5-3.3h-8.8l-1.5 3.3q-0.2 0.5-0.6 0.7-0.3 0.2-0.7 0.2-0.6 0-1.1-0.4-0.5-0.4-0.5-1 0-0.3 0.2-0.6l6.9-14.9q0.2-0.5 0.7-0.7 0.4-0.3 1-0.3 0.5 0 1 0.3 0.4 0.2 0.6 0.7zm-11.8-4.7h6.6l-3.3-7.4zm20.5 6.9q-1.9 0-3.6-0.5-1.7-0.6-2.8-1.4-0.6-0.5-0.6-1.2 0-0.6 0.3-0.9 0.3-0.4 0.8-0.4 0.4 0 1 0.3 1.1 0.8 2.2 1.1 1.2 0.4 2.6 0.4 1.9 0 2.8-0.6 1-0.7 1-1.9 0-1-0.9-1.5-0.9-0.5-3-1-2.2-0.4-3.6-1.1-1.4-0.6-2.1-1.6-0.7-0.9-0.7-2.4 0-1.6 0.9-2.8 0.9-1.2 2.4-1.9 1.6-0.7 3.5-0.7 3.6 0 5.9 1.9 0.3 0.3 0.4 0.5 0.2 0.3 0.2 0.7 0 0.5-0.3 0.9-0.4 0.4-0.8 0.4-0.2 0-0.4-0.1-0.3-0.1-0.6-0.3-1-0.7-2-1.1-1-0.3-2.4-0.3-1.7 0-2.6 0.7-1 0.6-1 1.9 0 1 0.8 1.5 0.9 0.6 3 1.1 2.2 0.5 3.6 1.1 1.4 0.6 2.2 1.5 0.7 1 0.7 2.4 0 1.6-0.9 2.8-0.8 1.1-2.4 1.8-1.6 0.7-3.6 0.7zm20.9-2.8q1.5 0 1.5 1.2 0 1.3-1.5 1.3h-10.6q-0.7 0-1-0.3-0.4-0.4-0.4-1 0-0.6 0.4-1.2l8.9-12.5h-7.8q-1.5 0-1.5-1.3 0-1.3 1.5-1.3h10.3q0.7 0 1.1 0.4 0.3 0.4 0.3 1 0 0.5-0.4 1.1l-8.9 12.6c0 0 8.1 0 8.1 0zm11.9 2.8q-2.6 0-4.5-1.1-1.9-1.1-2.9-3.2-1-2-1-4.8 0-2.7 1-4.8 1-2 2.9-3.1 1.9-1.1 4.5-1.1 2.5 0 4.4 1.1 1.9 1.1 2.9 3.1 1 2.1 1 4.8 0 2.8-1 4.8-1 2.1-2.9 3.2-1.9 1.1-4.4 1.1zm0-2.6q2.4 0 3.8-1.7 1.3-1.7 1.3-4.8 0-3.1-1.3-4.8-1.4-1.6-3.8-1.6-2.5 0-3.8 1.6-1.4 1.7-1.4 4.8 0 3.1 1.4 4.8 1.3 1.7 3.8 1.7zm33.7-14.4q0.2-0.5 0.6-0.8 0.3-0.2 0.8-0.2 0.6 0 1.1 0.3 0.4 0.4 0.4 1 0 0.3-0.1 0.7l-5.4 14.9q-0.2 0.5-0.7 0.7-0.4 0.3-1 0.3-0.5 0-1-0.3-0.5-0.2-0.7-0.7l-4.1-11.8-4.2 11.8q-0.2 0.5-0.7 0.7-0.5 0.3-1 0.3-0.6 0-1-0.3-0.5-0.2-0.7-0.7l-5.3-14.9q-0.2-0.4-0.2-0.7 0-0.6 0.5-1 0.5-0.3 1.1-0.3 0.5 0 0.9 0.2 0.4 0.3 0.6 0.8l4.2 12.2 4.4-12.2q0.2-0.5 0.6-0.7 0.4-0.3 0.8-0.3 0.5 0 0.9 0.3 0.4 0.2 0.6 0.8l4.3 12.2zm7.2 17q-0.7 0-1.1-0.5-0.5-0.4-0.5-1.2v-14.6q0-0.8 0.5-1.2 0.4-0.4 1.1-0.4 0.8 0 1.2 0.4 0.4 0.4 0.4 1.2v14.6q0 0.8-0.4 1.2-0.4 0.5-1.2 0.5zm7-0.2q-0.7 0-1.1-0.4-0.5-0.4-0.5-1.1v-14.6q0-0.7 0.5-1.1 0.4-0.4 1.1-0.4h9q0.7 0 1.1 0.3 0.4 0.3 0.4 0.9 0 0.7-0.4 1-0.4 0.3-1.1 0.3h-7.4v4.9h6.9q0.7 0 1.1 0.3 0.4 0.3 0.4 1 0 0.6-0.4 0.9-0.4 0.3-1.1 0.3h-6.9v5.2h7.4q0.7 0 1.1 0.3 0.4 0.3 0.4 1 0 0.6-0.4 0.9-0.4 0.3-1.1 0.3z"/>
		</g>
	</g>
</svg>